<svg xmlns="http://www.w3.org/2000/svg" viewBox="0 0 1920 1080" role="img" aria-labelledby="title desc"><title id="title">Cisco Core Router</title><desc id="desc">Premium corporate blue technology illustration of Cisco Core Router</desc><defs><linearGradient id="bg" x1="0" x2="1" y1="0" y2="1"><stop stop-color="#ffffff"/><stop offset=".55" stop-color="#eef7ff"/><stop offset="1" stop-color="#dbeafe"/></linearGradient><linearGradient id="metal" x1="0" x2="1"><stop stop-color="#0f172a"/><stop offset=".5" stop-color="#1e3a8a"/><stop offset="1" stop-color="#075985"/></linearGradient><filter id="glow"><feGaussianBlur stdDeviation="10" result="b"/><feMerge><feMergeNode in="b"/><feMergeNode in="SourceGraphic"/></feMerge></filter></defs><rect width="1920" height="1080" fill="url(#bg)"/><path d="M0 790C360 640 600 900 960 735s650-250 960-80v425H0Z" fill="#bfdbfe" opacity=".45"/><g opacity=".32"><circle cx="230" cy="290" r="5" fill="#0ea5e9"/><path d="M230 290 C 310 370, 400 230, 490 330" fill="none" stroke="#60a5fa" stroke-opacity=".28" stroke-width="3"/><circle cx="400" cy="147" r="5" fill="#0ea5e9"/><path d="M400 147 C 480 227, 570 87, 660 187" fill="none" stroke="#60a5fa" stroke-opacity=".28" stroke-width="3"/><circle cx="570" cy="244" r="5" fill="#0ea5e9"/><path d="M570 244 C 650 324, 740 184, 830 284" fill="none" stroke="#60a5fa" stroke-opacity=".28" stroke-width="3"/><circle cx="740" cy="341" r="5" fill="#0ea5e9"/><path d="M740 341 C 820 421, 910 281, 1000 381" fill="none" stroke="#60a5fa" stroke-opacity=".28" stroke-width="3"/><circle cx="910" cy="198" r="5" fill="#0ea5e9"/><path d="M910 198 C 990 278, 1080 138, 1170 238" fill="none" stroke="#60a5fa" stroke-opacity=".28" stroke-width="3"/><circle cx="1080" cy="295" r="5" fill="#0ea5e9"/><path d="M1080 295 C 1160 375, 1250 235, 1340 335" fill="none" stroke="#60a5fa" stroke-opacity=".28" stroke-width="3"/><circle cx="1250" cy="152" r="5" fill="#0ea5e9"/><path d="M1250 152 C 1330 232, 1420 92, 1510 192" fill="none" stroke="#60a5fa" stroke-opacity=".28" stroke-width="3"/><circle cx="1420" cy="249" r="5" fill="#0ea5e9"/><path d="M1420 249 C 1500 329, 1590 189, 1680 289" fill="none" stroke="#60a5fa" stroke-opacity=".28" stroke-width="3"/><circle cx="1590" cy="346" r="5" fill="#0ea5e9"/><path d="M1590 346 C 1670 426, 1760 286, 1850 386" fill="none" stroke="#60a5fa" stroke-opacity=".28" stroke-width="3"/><circle cx="260" cy="203" r="5" fill="#0ea5e9"/><path d="M260 203 C 340 283, 430 143, 520 243" fill="none" stroke="#60a5fa" stroke-opacity=".28" stroke-width="3"/></g><g filter="url(#glow)"><rect x="202" y="470" width="185" height="240" rx="18" fill="url(#metal)" stroke="#7dd3fc" stroke-opacity=".55"/><rect x="220" y="494" width="149" height="14" rx="7" fill="#38bdf8" opacity=".55"/><circle cx="359" cy="682" r="8" fill="#22c55e"/><rect x="452" y="420" width="202" height="271" rx="18" fill="url(#metal)" stroke="#7dd3fc" stroke-opacity=".55"/><rect x="470" y="444" width="166" height="14" rx="7" fill="#38bdf8" opacity=".55"/><circle cx="626" cy="663" r="8" fill="#22c55e"/><rect x="702" y="370" width="124" height="302" rx="18" fill="url(#metal)" stroke="#7dd3fc" stroke-opacity=".55"/><rect x="720" y="394" width="88" height="14" rx="7" fill="#38bdf8" opacity=".55"/><circle cx="798" cy="644" r="8" fill="#22c55e"/><rect x="952" y="470" width="141" height="333" rx="18" fill="url(#metal)" stroke="#7dd3fc" stroke-opacity=".55"/><rect x="970" y="494" width="105" height="14" rx="7" fill="#38bdf8" opacity=".55"/><circle cx="1065" cy="775" r="8" fill="#22c55e"/><rect x="1202" y="420" width="158" height="234" rx="18" fill="url(#metal)" stroke="#7dd3fc" stroke-opacity=".55"/><rect x="1220" y="444" width="122" height="14" rx="7" fill="#38bdf8" opacity=".55"/><circle cx="1332" cy="626" r="8" fill="#22c55e"/><rect x="1452" y="370" width="175" height="265" rx="18" fill="url(#metal)" stroke="#7dd3fc" stroke-opacity=".55"/><rect x="1470" y="394" width="139" height="14" rx="7" fill="#38bdf8" opacity=".55"/><circle cx="1599" cy="607" r="8" fill="#22c55e"/><rect x="1702" y="470" width="192" height="296" rx="18" fill="url(#metal)" stroke="#7dd3fc" stroke-opacity=".55"/><rect x="1720" y="494" width="156" height="14" rx="7" fill="#38bdf8" opacity=".55"/><circle cx="1866" cy="738" r="8" fill="#22c55e"/></g><ellipse cx="960" cy="420" rx="255" ry="100" fill="none" stroke="#38bdf8" stroke-width="8" opacity=".65"/><ellipse cx="960" cy="420" rx="100" ry="255" fill="none" stroke="#60a5fa" stroke-width="8" opacity=".45"/><circle cx="960" cy="420" r="64" fill="#0f172a" stroke="#7dd3fc" stroke-width="10"/><text x="96" y="140" font-family="Arial, Helvetica, sans-serif" font-size="58" font-weight="700" fill="#0f172a">Cisco Core Router</text><text x="100" y="202" font-family="Arial, Helvetica, sans-serif" font-size="28" fill="#2563eb">Ultra HD enterprise technology artwork · SEN Systems</text><rect x="96" y="888" width="520" height="6" rx="3" fill="#38bdf8"/><rect x="96" y="918" width="360" height="6" rx="3" fill="#93c5fd"/></svg>