<svg xmlns="http://www.w3.org/2000/svg" viewBox="0 0 1920 1080" role="img" aria-labelledby="title desc"><title id="title">Dell Enterprise Server</title><desc id="desc">Premium corporate blue technology illustration of Dell Enterprise Server</desc><defs><linearGradient id="bg" x1="0" x2="1" y1="0" y2="1"><stop stop-color="#ffffff"/><stop offset=".55" stop-color="#eef7ff"/><stop offset="1" stop-color="#dbeafe"/></linearGradient><linearGradient id="metal" x1="0" x2="1"><stop stop-color="#0f172a"/><stop offset=".5" stop-color="#1e3a8a"/><stop offset="1" stop-color="#075985"/></linearGradient><filter id="glow"><feGaussianBlur stdDeviation="10" result="b"/><feMerge><feMergeNode in="b"/><feMergeNode in="SourceGraphic"/></feMerge></filter></defs><rect width="1920" height="1080" fill="url(#bg)"/><path d="M0 790C360 640 600 900 960 735s650-250 960-80v425H0Z" fill="#bfdbfe" opacity=".45"/><g opacity=".32"><circle cx="230" cy="244" r="5" fill="#0ea5e9"/><path d="M230 244 C 310 324, 400 184, 490 284" fill="none" stroke="#60a5fa" stroke-opacity=".28" stroke-width="3"/><circle cx="400" cy="341" r="5" fill="#0ea5e9"/><path d="M400 341 C 480 421, 570 281, 660 381" fill="none" stroke="#60a5fa" stroke-opacity=".28" stroke-width="3"/><circle cx="570" cy="198" r="5" fill="#0ea5e9"/><path d="M570 198 C 650 278, 740 138, 830 238" fill="none" stroke="#60a5fa" stroke-opacity=".28" stroke-width="3"/><circle cx="740" cy="295" r="5" fill="#0ea5e9"/><path d="M740 295 C 820 375, 910 235, 1000 335" fill="none" stroke="#60a5fa" stroke-opacity=".28" stroke-width="3"/><circle cx="910" cy="152" r="5" fill="#0ea5e9"/><path d="M910 152 C 990 232, 1080 92, 1170 192" fill="none" stroke="#60a5fa" stroke-opacity=".28" stroke-width="3"/><circle cx="1080" cy="249" r="5" fill="#0ea5e9"/><path d="M1080 249 C 1160 329, 1250 189, 1340 289" fill="none" stroke="#60a5fa" stroke-opacity=".28" stroke-width="3"/><circle cx="1250" cy="346" r="5" fill="#0ea5e9"/><path d="M1250 346 C 1330 426, 1420 286, 1510 386" fill="none" stroke="#60a5fa" stroke-opacity=".28" stroke-width="3"/><circle cx="1420" cy="203" r="5" fill="#0ea5e9"/><path d="M1420 203 C 1500 283, 1590 143, 1680 243" fill="none" stroke="#60a5fa" stroke-opacity=".28" stroke-width="3"/><circle cx="1590" cy="300" r="5" fill="#0ea5e9"/><path d="M1590 300 C 1670 380, 1760 240, 1850 340" fill="none" stroke="#60a5fa" stroke-opacity=".28" stroke-width="3"/><circle cx="260" cy="157" r="5" fill="#0ea5e9"/><path d="M260 157 C 340 237, 430 97, 520 197" fill="none" stroke="#60a5fa" stroke-opacity=".28" stroke-width="3"/></g><g filter="url(#glow)"><rect x="186" y="470" width="194" height="264" rx="18" fill="url(#metal)" stroke="#7dd3fc" stroke-opacity=".55"/><rect x="204" y="494" width="158" height="14" rx="7" fill="#38bdf8" opacity=".55"/><circle cx="352" cy="706" r="8" fill="#22c55e"/><rect x="436" y="420" width="211" height="295" rx="18" fill="url(#metal)" stroke="#7dd3fc" stroke-opacity=".55"/><rect x="454" y="444" width="175" height="14" rx="7" fill="#38bdf8" opacity=".55"/><circle cx="619" cy="687" r="8" fill="#22c55e"/><rect x="686" y="370" width="133" height="326" rx="18" fill="url(#metal)" stroke="#7dd3fc" stroke-opacity=".55"/><rect x="704" y="394" width="97" height="14" rx="7" fill="#38bdf8" opacity=".55"/><circle cx="791" cy="668" r="8" fill="#22c55e"/><rect x="936" y="470" width="150" height="227" rx="18" fill="url(#metal)" stroke="#7dd3fc" stroke-opacity=".55"/><rect x="954" y="494" width="114" height="14" rx="7" fill="#38bdf8" opacity=".55"/><circle cx="1058" cy="669" r="8" fill="#22c55e"/><rect x="1186" y="420" width="167" height="258" rx="18" fill="url(#metal)" stroke="#7dd3fc" stroke-opacity=".55"/><rect x="1204" y="444" width="131" height="14" rx="7" fill="#38bdf8" opacity=".55"/><circle cx="1325" cy="650" r="8" fill="#22c55e"/><rect x="1436" y="370" width="184" height="289" rx="18" fill="url(#metal)" stroke="#7dd3fc" stroke-opacity=".55"/><rect x="1454" y="394" width="148" height="14" rx="7" fill="#38bdf8" opacity=".55"/><circle cx="1592" cy="631" r="8" fill="#22c55e"/><rect x="1686" y="470" width="201" height="320" rx="18" fill="url(#metal)" stroke="#7dd3fc" stroke-opacity=".55"/><rect x="1704" y="494" width="165" height="14" rx="7" fill="#38bdf8" opacity=".55"/><circle cx="1859" cy="762" r="8" fill="#22c55e"/></g><rect x="760" y="250" width="400" height="360" rx="34" fill="#0f172a" stroke="#7dd3fc" stroke-width="8"/><g opacity=".9"><rect x="810" y="310" width="300" height="28" rx="14" fill="#38bdf8"/><rect x="810" y="380" width="300" height="28" rx="14" fill="#60a5fa"/><rect x="810" y="450" width="300" height="28" rx="14" fill="#38bdf8"/></g><text x="96" y="140" font-family="Arial, Helvetica, sans-serif" font-size="58" font-weight="700" fill="#0f172a">Dell Enterprise Server</text><text x="100" y="202" font-family="Arial, Helvetica, sans-serif" font-size="28" fill="#2563eb">Ultra HD enterprise technology artwork · SEN Systems</text><rect x="96" y="888" width="520" height="6" rx="3" fill="#38bdf8"/><rect x="96" y="918" width="360" height="6" rx="3" fill="#93c5fd"/></svg>