<svg xmlns="http://www.w3.org/2000/svg" viewBox="0 0 1920 1080" role="img" aria-labelledby="title desc"><title id="title">Huawei Data Center Switch</title><desc id="desc">Premium corporate blue technology illustration of Huawei Data Center Switch</desc><defs><linearGradient id="bg" x1="0" x2="1" y1="0" y2="1"><stop stop-color="#ffffff"/><stop offset=".55" stop-color="#eef7ff"/><stop offset="1" stop-color="#dbeafe"/></linearGradient><linearGradient id="metal" x1="0" x2="1"><stop stop-color="#0f172a"/><stop offset=".5" stop-color="#1e3a8a"/><stop offset="1" stop-color="#075985"/></linearGradient><filter id="glow"><feGaussianBlur stdDeviation="10" result="b"/><feMerge><feMergeNode in="b"/><feMergeNode in="SourceGraphic"/></feMerge></filter></defs><rect width="1920" height="1080" fill="url(#bg)"/><path d="M0 790C360 640 600 900 960 735s650-250 960-80v425H0Z" fill="#bfdbfe" opacity=".45"/><g opacity=".32"><circle cx="230" cy="146" r="5" fill="#0ea5e9"/><path d="M230 146 C 310 226, 400 86, 490 186" fill="none" stroke="#60a5fa" stroke-opacity=".28" stroke-width="3"/><circle cx="400" cy="243" r="5" fill="#0ea5e9"/><path d="M400 243 C 480 323, 570 183, 660 283" fill="none" stroke="#60a5fa" stroke-opacity=".28" stroke-width="3"/><circle cx="570" cy="340" r="5" fill="#0ea5e9"/><path d="M570 340 C 650 420, 740 280, 830 380" fill="none" stroke="#60a5fa" stroke-opacity=".28" stroke-width="3"/><circle cx="740" cy="197" r="5" fill="#0ea5e9"/><path d="M740 197 C 820 277, 910 137, 1000 237" fill="none" stroke="#60a5fa" stroke-opacity=".28" stroke-width="3"/><circle cx="910" cy="294" r="5" fill="#0ea5e9"/><path d="M910 294 C 990 374, 1080 234, 1170 334" fill="none" stroke="#60a5fa" stroke-opacity=".28" stroke-width="3"/><circle cx="1080" cy="151" r="5" fill="#0ea5e9"/><path d="M1080 151 C 1160 231, 1250 91, 1340 191" fill="none" stroke="#60a5fa" stroke-opacity=".28" stroke-width="3"/><circle cx="1250" cy="248" r="5" fill="#0ea5e9"/><path d="M1250 248 C 1330 328, 1420 188, 1510 288" fill="none" stroke="#60a5fa" stroke-opacity=".28" stroke-width="3"/><circle cx="1420" cy="345" r="5" fill="#0ea5e9"/><path d="M1420 345 C 1500 425, 1590 285, 1680 385" fill="none" stroke="#60a5fa" stroke-opacity=".28" stroke-width="3"/><circle cx="1590" cy="202" r="5" fill="#0ea5e9"/><path d="M1590 202 C 1670 282, 1760 142, 1850 242" fill="none" stroke="#60a5fa" stroke-opacity=".28" stroke-width="3"/><circle cx="260" cy="299" r="5" fill="#0ea5e9"/><path d="M260 299 C 340 379, 430 239, 520 339" fill="none" stroke="#60a5fa" stroke-opacity=".28" stroke-width="3"/></g><g filter="url(#glow)"><rect x="190" y="470" width="146" height="276" rx="18" fill="url(#metal)" stroke="#7dd3fc" stroke-opacity=".55"/><rect x="208" y="494" width="110" height="14" rx="7" fill="#38bdf8" opacity=".55"/><circle cx="308" cy="718" r="8" fill="#22c55e"/><rect x="440" y="420" width="163" height="307" rx="18" fill="url(#metal)" stroke="#7dd3fc" stroke-opacity=".55"/><rect x="458" y="444" width="127" height="14" rx="7" fill="#38bdf8" opacity=".55"/><circle cx="575" cy="699" r="8" fill="#22c55e"/><rect x="690" y="370" width="180" height="338" rx="18" fill="url(#metal)" stroke="#7dd3fc" stroke-opacity=".55"/><rect x="708" y="394" width="144" height="14" rx="7" fill="#38bdf8" opacity=".55"/><circle cx="842" cy="680" r="8" fill="#22c55e"/><rect x="940" y="470" width="197" height="239" rx="18" fill="url(#metal)" stroke="#7dd3fc" stroke-opacity=".55"/><rect x="958" y="494" width="161" height="14" rx="7" fill="#38bdf8" opacity=".55"/><circle cx="1109" cy="681" r="8" fill="#22c55e"/><rect x="1190" y="420" width="214" height="270" rx="18" fill="url(#metal)" stroke="#7dd3fc" stroke-opacity=".55"/><rect x="1208" y="444" width="178" height="14" rx="7" fill="#38bdf8" opacity=".55"/><circle cx="1376" cy="662" r="8" fill="#22c55e"/><rect x="1440" y="370" width="136" height="301" rx="18" fill="url(#metal)" stroke="#7dd3fc" stroke-opacity=".55"/><rect x="1458" y="394" width="100" height="14" rx="7" fill="#38bdf8" opacity=".55"/><circle cx="1548" cy="643" r="8" fill="#22c55e"/><rect x="1690" y="470" width="153" height="332" rx="18" fill="url(#metal)" stroke="#7dd3fc" stroke-opacity=".55"/><rect x="1708" y="494" width="117" height="14" rx="7" fill="#38bdf8" opacity=".55"/><circle cx="1815" cy="774" r="8" fill="#22c55e"/></g><ellipse cx="960" cy="420" rx="255" ry="100" fill="none" stroke="#38bdf8" stroke-width="8" opacity=".65"/><ellipse cx="960" cy="420" rx="100" ry="255" fill="none" stroke="#60a5fa" stroke-width="8" opacity=".45"/><circle cx="960" cy="420" r="64" fill="#0f172a" stroke="#7dd3fc" stroke-width="10"/><text x="96" y="140" font-family="Arial, Helvetica, sans-serif" font-size="58" font-weight="700" fill="#0f172a">Huawei Data Center Switch</text><text x="100" y="202" font-family="Arial, Helvetica, sans-serif" font-size="28" fill="#2563eb">Ultra HD enterprise technology artwork · SEN Systems</text><rect x="96" y="888" width="520" height="6" rx="3" fill="#38bdf8"/><rect x="96" y="918" width="360" height="6" rx="3" fill="#93c5fd"/></svg>