<svg xmlns="http://www.w3.org/2000/svg" viewBox="0 0 1920 1080" role="img" aria-labelledby="title desc"><title id="title">Huawei OLT</title><desc id="desc">Premium corporate blue technology illustration of Huawei OLT</desc><defs><linearGradient id="bg" x1="0" x2="1" y1="0" y2="1"><stop stop-color="#ffffff"/><stop offset=".55" stop-color="#eef7ff"/><stop offset="1" stop-color="#dbeafe"/></linearGradient><linearGradient id="metal" x1="0" x2="1"><stop stop-color="#0f172a"/><stop offset=".5" stop-color="#1e3a8a"/><stop offset="1" stop-color="#075985"/></linearGradient><filter id="glow"><feGaussianBlur stdDeviation="10" result="b"/><feMerge><feMergeNode in="b"/><feMergeNode in="SourceGraphic"/></feMerge></filter></defs><rect width="1920" height="1080" fill="url(#bg)"/><path d="M0 790C360 640 600 900 960 735s650-250 960-80v425H0Z" fill="#bfdbfe" opacity=".45"/><g opacity=".32"><circle cx="230" cy="313" r="5" fill="#0ea5e9"/><path d="M230 313 C 310 393, 400 253, 490 353" fill="none" stroke="#60a5fa" stroke-opacity=".28" stroke-width="3"/><circle cx="400" cy="170" r="5" fill="#0ea5e9"/><path d="M400 170 C 480 250, 570 110, 660 210" fill="none" stroke="#60a5fa" stroke-opacity=".28" stroke-width="3"/><circle cx="570" cy="267" r="5" fill="#0ea5e9"/><path d="M570 267 C 650 347, 740 207, 830 307" fill="none" stroke="#60a5fa" stroke-opacity=".28" stroke-width="3"/><circle cx="740" cy="364" r="5" fill="#0ea5e9"/><path d="M740 364 C 820 444, 910 304, 1000 404" fill="none" stroke="#60a5fa" stroke-opacity=".28" stroke-width="3"/><circle cx="910" cy="221" r="5" fill="#0ea5e9"/><path d="M910 221 C 990 301, 1080 161, 1170 261" fill="none" stroke="#60a5fa" stroke-opacity=".28" stroke-width="3"/><circle cx="1080" cy="318" r="5" fill="#0ea5e9"/><path d="M1080 318 C 1160 398, 1250 258, 1340 358" fill="none" stroke="#60a5fa" stroke-opacity=".28" stroke-width="3"/><circle cx="1250" cy="175" r="5" fill="#0ea5e9"/><path d="M1250 175 C 1330 255, 1420 115, 1510 215" fill="none" stroke="#60a5fa" stroke-opacity=".28" stroke-width="3"/><circle cx="1420" cy="272" r="5" fill="#0ea5e9"/><path d="M1420 272 C 1500 352, 1590 212, 1680 312" fill="none" stroke="#60a5fa" stroke-opacity=".28" stroke-width="3"/><circle cx="1590" cy="369" r="5" fill="#0ea5e9"/><path d="M1590 369 C 1670 449, 1760 309, 1850 409" fill="none" stroke="#60a5fa" stroke-opacity=".28" stroke-width="3"/><circle cx="260" cy="226" r="5" fill="#0ea5e9"/><path d="M260 226 C 340 306, 430 166, 520 266" fill="none" stroke="#60a5fa" stroke-opacity=".28" stroke-width="3"/></g><g filter="url(#glow)"><rect x="189" y="470" width="163" height="243" rx="18" fill="url(#metal)" stroke="#7dd3fc" stroke-opacity=".55"/><rect x="207" y="494" width="127" height="14" rx="7" fill="#38bdf8" opacity=".55"/><circle cx="324" cy="685" r="8" fill="#22c55e"/><rect x="439" y="420" width="180" height="274" rx="18" fill="url(#metal)" stroke="#7dd3fc" stroke-opacity=".55"/><rect x="457" y="444" width="144" height="14" rx="7" fill="#38bdf8" opacity=".55"/><circle cx="591" cy="666" r="8" fill="#22c55e"/><rect x="689" y="370" width="197" height="305" rx="18" fill="url(#metal)" stroke="#7dd3fc" stroke-opacity=".55"/><rect x="707" y="394" width="161" height="14" rx="7" fill="#38bdf8" opacity=".55"/><circle cx="858" cy="647" r="8" fill="#22c55e"/><rect x="939" y="470" width="214" height="336" rx="18" fill="url(#metal)" stroke="#7dd3fc" stroke-opacity=".55"/><rect x="957" y="494" width="178" height="14" rx="7" fill="#38bdf8" opacity=".55"/><circle cx="1125" cy="778" r="8" fill="#22c55e"/><rect x="1189" y="420" width="136" height="237" rx="18" fill="url(#metal)" stroke="#7dd3fc" stroke-opacity=".55"/><rect x="1207" y="444" width="100" height="14" rx="7" fill="#38bdf8" opacity=".55"/><circle cx="1297" cy="629" r="8" fill="#22c55e"/><rect x="1439" y="370" width="153" height="268" rx="18" fill="url(#metal)" stroke="#7dd3fc" stroke-opacity=".55"/><rect x="1457" y="394" width="117" height="14" rx="7" fill="#38bdf8" opacity=".55"/><circle cx="1564" cy="610" r="8" fill="#22c55e"/><rect x="1689" y="470" width="170" height="299" rx="18" fill="url(#metal)" stroke="#7dd3fc" stroke-opacity=".55"/><rect x="1707" y="494" width="134" height="14" rx="7" fill="#38bdf8" opacity=".55"/><circle cx="1831" cy="741" r="8" fill="#22c55e"/></g><ellipse cx="960" cy="420" rx="255" ry="100" fill="none" stroke="#38bdf8" stroke-width="8" opacity=".65"/><ellipse cx="960" cy="420" rx="100" ry="255" fill="none" stroke="#60a5fa" stroke-width="8" opacity=".45"/><circle cx="960" cy="420" r="64" fill="#0f172a" stroke="#7dd3fc" stroke-width="10"/><text x="96" y="140" font-family="Arial, Helvetica, sans-serif" font-size="58" font-weight="700" fill="#0f172a">Huawei OLT</text><text x="100" y="202" font-family="Arial, Helvetica, sans-serif" font-size="28" fill="#2563eb">Ultra HD enterprise technology artwork · SEN Systems</text><rect x="96" y="888" width="520" height="6" rx="3" fill="#38bdf8"/><rect x="96" y="918" width="360" height="6" rx="3" fill="#93c5fd"/></svg>