<svg xmlns="http://www.w3.org/2000/svg" viewBox="0 0 1920 1080" role="img" aria-labelledby="title desc"><title id="title">Industrial PLC</title><desc id="desc">Premium corporate blue technology illustration of Industrial PLC</desc><defs><linearGradient id="bg" x1="0" x2="1" y1="0" y2="1"><stop stop-color="#ffffff"/><stop offset=".55" stop-color="#eef7ff"/><stop offset="1" stop-color="#dbeafe"/></linearGradient><linearGradient id="metal" x1="0" x2="1"><stop stop-color="#0f172a"/><stop offset=".5" stop-color="#1e3a8a"/><stop offset="1" stop-color="#075985"/></linearGradient><filter id="glow"><feGaussianBlur stdDeviation="10" result="b"/><feMerge><feMergeNode in="b"/><feMergeNode in="SourceGraphic"/></feMerge></filter></defs><rect width="1920" height="1080" fill="url(#bg)"/><path d="M0 790C360 640 600 900 960 735s650-250 960-80v425H0Z" fill="#bfdbfe" opacity=".45"/><g opacity=".32"><circle cx="230" cy="249" r="5" fill="#0ea5e9"/><path d="M230 249 C 310 329, 400 189, 490 289" fill="none" stroke="#60a5fa" stroke-opacity=".28" stroke-width="3"/><circle cx="400" cy="346" r="5" fill="#0ea5e9"/><path d="M400 346 C 480 426, 570 286, 660 386" fill="none" stroke="#60a5fa" stroke-opacity=".28" stroke-width="3"/><circle cx="570" cy="203" r="5" fill="#0ea5e9"/><path d="M570 203 C 650 283, 740 143, 830 243" fill="none" stroke="#60a5fa" stroke-opacity=".28" stroke-width="3"/><circle cx="740" cy="300" r="5" fill="#0ea5e9"/><path d="M740 300 C 820 380, 910 240, 1000 340" fill="none" stroke="#60a5fa" stroke-opacity=".28" stroke-width="3"/><circle cx="910" cy="157" r="5" fill="#0ea5e9"/><path d="M910 157 C 990 237, 1080 97, 1170 197" fill="none" stroke="#60a5fa" stroke-opacity=".28" stroke-width="3"/><circle cx="1080" cy="254" r="5" fill="#0ea5e9"/><path d="M1080 254 C 1160 334, 1250 194, 1340 294" fill="none" stroke="#60a5fa" stroke-opacity=".28" stroke-width="3"/><circle cx="1250" cy="351" r="5" fill="#0ea5e9"/><path d="M1250 351 C 1330 431, 1420 291, 1510 391" fill="none" stroke="#60a5fa" stroke-opacity=".28" stroke-width="3"/><circle cx="1420" cy="208" r="5" fill="#0ea5e9"/><path d="M1420 208 C 1500 288, 1590 148, 1680 248" fill="none" stroke="#60a5fa" stroke-opacity=".28" stroke-width="3"/><circle cx="1590" cy="305" r="5" fill="#0ea5e9"/><path d="M1590 305 C 1670 385, 1760 245, 1850 345" fill="none" stroke="#60a5fa" stroke-opacity=".28" stroke-width="3"/><circle cx="260" cy="162" r="5" fill="#0ea5e9"/><path d="M260 162 C 340 242, 430 102, 520 202" fill="none" stroke="#60a5fa" stroke-opacity=".28" stroke-width="3"/></g><g filter="url(#glow)"><rect x="184" y="470" width="144" height="329" rx="18" fill="url(#metal)" stroke="#7dd3fc" stroke-opacity=".55"/><rect x="202" y="494" width="108" height="14" rx="7" fill="#38bdf8" opacity=".55"/><circle cx="300" cy="771" r="8" fill="#22c55e"/><rect x="434" y="420" width="161" height="230" rx="18" fill="url(#metal)" stroke="#7dd3fc" stroke-opacity=".55"/><rect x="452" y="444" width="125" height="14" rx="7" fill="#38bdf8" opacity=".55"/><circle cx="567" cy="622" r="8" fill="#22c55e"/><rect x="684" y="370" width="178" height="261" rx="18" fill="url(#metal)" stroke="#7dd3fc" stroke-opacity=".55"/><rect x="702" y="394" width="142" height="14" rx="7" fill="#38bdf8" opacity=".55"/><circle cx="834" cy="603" r="8" fill="#22c55e"/><rect x="934" y="470" width="195" height="292" rx="18" fill="url(#metal)" stroke="#7dd3fc" stroke-opacity=".55"/><rect x="952" y="494" width="159" height="14" rx="7" fill="#38bdf8" opacity=".55"/><circle cx="1101" cy="734" r="8" fill="#22c55e"/><rect x="1184" y="420" width="212" height="323" rx="18" fill="url(#metal)" stroke="#7dd3fc" stroke-opacity=".55"/><rect x="1202" y="444" width="176" height="14" rx="7" fill="#38bdf8" opacity=".55"/><circle cx="1368" cy="715" r="8" fill="#22c55e"/><rect x="1434" y="370" width="134" height="224" rx="18" fill="url(#metal)" stroke="#7dd3fc" stroke-opacity=".55"/><rect x="1452" y="394" width="98" height="14" rx="7" fill="#38bdf8" opacity=".55"/><circle cx="1540" cy="566" r="8" fill="#22c55e"/><rect x="1684" y="470" width="151" height="255" rx="18" fill="url(#metal)" stroke="#7dd3fc" stroke-opacity=".55"/><rect x="1702" y="494" width="115" height="14" rx="7" fill="#38bdf8" opacity=".55"/><circle cx="1807" cy="697" r="8" fill="#22c55e"/></g><path d="M870 620V440l140-95 105 65-95 75 125 135" fill="none" stroke="#2563eb" stroke-width="34" stroke-linecap="round" stroke-linejoin="round"/><circle cx="1010" cy="345" r="44" fill="#0ea5e9"/><text x="96" y="140" font-family="Arial, Helvetica, sans-serif" font-size="58" font-weight="700" fill="#0f172a">Industrial PLC</text><text x="100" y="202" font-family="Arial, Helvetica, sans-serif" font-size="28" fill="#2563eb">Ultra HD enterprise technology artwork · SEN Systems</text><rect x="96" y="888" width="520" height="6" rx="3" fill="#38bdf8"/><rect x="96" y="918" width="360" height="6" rx="3" fill="#93c5fd"/></svg>