<svg xmlns="http://www.w3.org/2000/svg" viewBox="0 0 1920 1080" role="img" aria-labelledby="title desc"><title id="title">Industrial Robot Arm</title><desc id="desc">Premium corporate blue technology illustration of Industrial Robot Arm</desc><defs><linearGradient id="bg" x1="0" x2="1" y1="0" y2="1"><stop stop-color="#ffffff"/><stop offset=".55" stop-color="#eef7ff"/><stop offset="1" stop-color="#dbeafe"/></linearGradient><linearGradient id="metal" x1="0" x2="1"><stop stop-color="#0f172a"/><stop offset=".5" stop-color="#1e3a8a"/><stop offset="1" stop-color="#075985"/></linearGradient><filter id="glow"><feGaussianBlur stdDeviation="10" result="b"/><feMerge><feMergeNode in="b"/><feMergeNode in="SourceGraphic"/></feMerge></filter></defs><rect width="1920" height="1080" fill="url(#bg)"/><path d="M0 790C360 640 600 900 960 735s650-250 960-80v425H0Z" fill="#bfdbfe" opacity=".45"/><g opacity=".32"><circle cx="230" cy="247" r="5" fill="#0ea5e9"/><path d="M230 247 C 310 327, 400 187, 490 287" fill="none" stroke="#60a5fa" stroke-opacity=".28" stroke-width="3"/><circle cx="400" cy="344" r="5" fill="#0ea5e9"/><path d="M400 344 C 480 424, 570 284, 660 384" fill="none" stroke="#60a5fa" stroke-opacity=".28" stroke-width="3"/><circle cx="570" cy="201" r="5" fill="#0ea5e9"/><path d="M570 201 C 650 281, 740 141, 830 241" fill="none" stroke="#60a5fa" stroke-opacity=".28" stroke-width="3"/><circle cx="740" cy="298" r="5" fill="#0ea5e9"/><path d="M740 298 C 820 378, 910 238, 1000 338" fill="none" stroke="#60a5fa" stroke-opacity=".28" stroke-width="3"/><circle cx="910" cy="155" r="5" fill="#0ea5e9"/><path d="M910 155 C 990 235, 1080 95, 1170 195" fill="none" stroke="#60a5fa" stroke-opacity=".28" stroke-width="3"/><circle cx="1080" cy="252" r="5" fill="#0ea5e9"/><path d="M1080 252 C 1160 332, 1250 192, 1340 292" fill="none" stroke="#60a5fa" stroke-opacity=".28" stroke-width="3"/><circle cx="1250" cy="349" r="5" fill="#0ea5e9"/><path d="M1250 349 C 1330 429, 1420 289, 1510 389" fill="none" stroke="#60a5fa" stroke-opacity=".28" stroke-width="3"/><circle cx="1420" cy="206" r="5" fill="#0ea5e9"/><path d="M1420 206 C 1500 286, 1590 146, 1680 246" fill="none" stroke="#60a5fa" stroke-opacity=".28" stroke-width="3"/><circle cx="1590" cy="303" r="5" fill="#0ea5e9"/><path d="M1590 303 C 1670 383, 1760 243, 1850 343" fill="none" stroke="#60a5fa" stroke-opacity=".28" stroke-width="3"/><circle cx="260" cy="160" r="5" fill="#0ea5e9"/><path d="M260 160 C 340 240, 430 100, 520 200" fill="none" stroke="#60a5fa" stroke-opacity=".28" stroke-width="3"/></g><g filter="url(#glow)"><rect x="192" y="470" width="192" height="307" rx="18" fill="url(#metal)" stroke="#7dd3fc" stroke-opacity=".55"/><rect x="210" y="494" width="156" height="14" rx="7" fill="#38bdf8" opacity=".55"/><circle cx="356" cy="749" r="8" fill="#22c55e"/><rect x="442" y="420" width="209" height="338" rx="18" fill="url(#metal)" stroke="#7dd3fc" stroke-opacity=".55"/><rect x="460" y="444" width="173" height="14" rx="7" fill="#38bdf8" opacity=".55"/><circle cx="623" cy="730" r="8" fill="#22c55e"/><rect x="692" y="370" width="131" height="239" rx="18" fill="url(#metal)" stroke="#7dd3fc" stroke-opacity=".55"/><rect x="710" y="394" width="95" height="14" rx="7" fill="#38bdf8" opacity=".55"/><circle cx="795" cy="581" r="8" fill="#22c55e"/><rect x="942" y="470" width="148" height="270" rx="18" fill="url(#metal)" stroke="#7dd3fc" stroke-opacity=".55"/><rect x="960" y="494" width="112" height="14" rx="7" fill="#38bdf8" opacity=".55"/><circle cx="1062" cy="712" r="8" fill="#22c55e"/><rect x="1192" y="420" width="165" height="301" rx="18" fill="url(#metal)" stroke="#7dd3fc" stroke-opacity=".55"/><rect x="1210" y="444" width="129" height="14" rx="7" fill="#38bdf8" opacity=".55"/><circle cx="1329" cy="693" r="8" fill="#22c55e"/><rect x="1442" y="370" width="182" height="332" rx="18" fill="url(#metal)" stroke="#7dd3fc" stroke-opacity=".55"/><rect x="1460" y="394" width="146" height="14" rx="7" fill="#38bdf8" opacity=".55"/><circle cx="1596" cy="674" r="8" fill="#22c55e"/><rect x="1692" y="470" width="199" height="233" rx="18" fill="url(#metal)" stroke="#7dd3fc" stroke-opacity=".55"/><rect x="1710" y="494" width="163" height="14" rx="7" fill="#38bdf8" opacity=".55"/><circle cx="1863" cy="675" r="8" fill="#22c55e"/></g><path d="M870 620V440l140-95 105 65-95 75 125 135" fill="none" stroke="#2563eb" stroke-width="34" stroke-linecap="round" stroke-linejoin="round"/><circle cx="1010" cy="345" r="44" fill="#0ea5e9"/><text x="96" y="140" font-family="Arial, Helvetica, sans-serif" font-size="58" font-weight="700" fill="#0f172a">Industrial Robot Arm</text><text x="100" y="202" font-family="Arial, Helvetica, sans-serif" font-size="28" fill="#2563eb">Ultra HD enterprise technology artwork · SEN Systems</text><rect x="96" y="888" width="520" height="6" rx="3" fill="#38bdf8"/><rect x="96" y="918" width="360" height="6" rx="3" fill="#93c5fd"/></svg>