<svg xmlns="http://www.w3.org/2000/svg" viewBox="0 0 1920 1080" role="img" aria-labelledby="title desc"><title id="title">Industrial HMI</title><desc id="desc">Premium corporate blue technology illustration of Industrial HMI</desc><defs><linearGradient id="bg" x1="0" x2="1" y1="0" y2="1"><stop stop-color="#ffffff"/><stop offset=".55" stop-color="#eef7ff"/><stop offset="1" stop-color="#dbeafe"/></linearGradient><linearGradient id="metal" x1="0" x2="1"><stop stop-color="#0f172a"/><stop offset=".5" stop-color="#1e3a8a"/><stop offset="1" stop-color="#075985"/></linearGradient><filter id="glow"><feGaussianBlur stdDeviation="10" result="b"/><feMerge><feMergeNode in="b"/><feMergeNode in="SourceGraphic"/></feMerge></filter></defs><rect width="1920" height="1080" fill="url(#bg)"/><path d="M0 790C360 640 600 900 960 735s650-250 960-80v425H0Z" fill="#bfdbfe" opacity=".45"/><g opacity=".32"><circle cx="230" cy="145" r="5" fill="#0ea5e9"/><path d="M230 145 C 310 225, 400 85, 490 185" fill="none" stroke="#60a5fa" stroke-opacity=".28" stroke-width="3"/><circle cx="400" cy="242" r="5" fill="#0ea5e9"/><path d="M400 242 C 480 322, 570 182, 660 282" fill="none" stroke="#60a5fa" stroke-opacity=".28" stroke-width="3"/><circle cx="570" cy="339" r="5" fill="#0ea5e9"/><path d="M570 339 C 650 419, 740 279, 830 379" fill="none" stroke="#60a5fa" stroke-opacity=".28" stroke-width="3"/><circle cx="740" cy="196" r="5" fill="#0ea5e9"/><path d="M740 196 C 820 276, 910 136, 1000 236" fill="none" stroke="#60a5fa" stroke-opacity=".28" stroke-width="3"/><circle cx="910" cy="293" r="5" fill="#0ea5e9"/><path d="M910 293 C 990 373, 1080 233, 1170 333" fill="none" stroke="#60a5fa" stroke-opacity=".28" stroke-width="3"/><circle cx="1080" cy="150" r="5" fill="#0ea5e9"/><path d="M1080 150 C 1160 230, 1250 90, 1340 190" fill="none" stroke="#60a5fa" stroke-opacity=".28" stroke-width="3"/><circle cx="1250" cy="247" r="5" fill="#0ea5e9"/><path d="M1250 247 C 1330 327, 1420 187, 1510 287" fill="none" stroke="#60a5fa" stroke-opacity=".28" stroke-width="3"/><circle cx="1420" cy="344" r="5" fill="#0ea5e9"/><path d="M1420 344 C 1500 424, 1590 284, 1680 384" fill="none" stroke="#60a5fa" stroke-opacity=".28" stroke-width="3"/><circle cx="1590" cy="201" r="5" fill="#0ea5e9"/><path d="M1590 201 C 1670 281, 1760 141, 1850 241" fill="none" stroke="#60a5fa" stroke-opacity=".28" stroke-width="3"/><circle cx="260" cy="298" r="5" fill="#0ea5e9"/><path d="M260 298 C 340 378, 430 238, 520 338" fill="none" stroke="#60a5fa" stroke-opacity=".28" stroke-width="3"/></g><g filter="url(#glow)"><rect x="195" y="470" width="135" height="225" rx="18" fill="url(#metal)" stroke="#7dd3fc" stroke-opacity=".55"/><rect x="213" y="494" width="99" height="14" rx="7" fill="#38bdf8" opacity=".55"/><circle cx="302" cy="667" r="8" fill="#22c55e"/><rect x="445" y="420" width="152" height="256" rx="18" fill="url(#metal)" stroke="#7dd3fc" stroke-opacity=".55"/><rect x="463" y="444" width="116" height="14" rx="7" fill="#38bdf8" opacity=".55"/><circle cx="569" cy="648" r="8" fill="#22c55e"/><rect x="695" y="370" width="169" height="287" rx="18" fill="url(#metal)" stroke="#7dd3fc" stroke-opacity=".55"/><rect x="713" y="394" width="133" height="14" rx="7" fill="#38bdf8" opacity=".55"/><circle cx="836" cy="629" r="8" fill="#22c55e"/><rect x="945" y="470" width="186" height="318" rx="18" fill="url(#metal)" stroke="#7dd3fc" stroke-opacity=".55"/><rect x="963" y="494" width="150" height="14" rx="7" fill="#38bdf8" opacity=".55"/><circle cx="1103" cy="760" r="8" fill="#22c55e"/><rect x="1195" y="420" width="203" height="219" rx="18" fill="url(#metal)" stroke="#7dd3fc" stroke-opacity=".55"/><rect x="1213" y="444" width="167" height="14" rx="7" fill="#38bdf8" opacity=".55"/><circle cx="1370" cy="611" r="8" fill="#22c55e"/><rect x="1445" y="370" width="125" height="250" rx="18" fill="url(#metal)" stroke="#7dd3fc" stroke-opacity=".55"/><rect x="1463" y="394" width="89" height="14" rx="7" fill="#38bdf8" opacity=".55"/><circle cx="1542" cy="592" r="8" fill="#22c55e"/><rect x="1695" y="470" width="142" height="281" rx="18" fill="url(#metal)" stroke="#7dd3fc" stroke-opacity=".55"/><rect x="1713" y="494" width="106" height="14" rx="7" fill="#38bdf8" opacity=".55"/><circle cx="1809" cy="723" r="8" fill="#22c55e"/></g><path d="M870 620V440l140-95 105 65-95 75 125 135" fill="none" stroke="#2563eb" stroke-width="34" stroke-linecap="round" stroke-linejoin="round"/><circle cx="1010" cy="345" r="44" fill="#0ea5e9"/><text x="96" y="140" font-family="Arial, Helvetica, sans-serif" font-size="58" font-weight="700" fill="#0f172a">Industrial HMI</text><text x="100" y="202" font-family="Arial, Helvetica, sans-serif" font-size="28" fill="#2563eb">Ultra HD enterprise technology artwork · SEN Systems</text><rect x="96" y="888" width="520" height="6" rx="3" fill="#38bdf8"/><rect x="96" y="918" width="360" height="6" rx="3" fill="#93c5fd"/></svg>