<svg xmlns="http://www.w3.org/2000/svg" viewBox="0 0 1920 1080" role="img" aria-labelledby="title desc"><title id="title">Industrial VFD</title><desc id="desc">Premium corporate blue technology illustration of Industrial VFD</desc><defs><linearGradient id="bg" x1="0" x2="1" y1="0" y2="1"><stop stop-color="#ffffff"/><stop offset=".55" stop-color="#eef7ff"/><stop offset="1" stop-color="#dbeafe"/></linearGradient><linearGradient id="metal" x1="0" x2="1"><stop stop-color="#0f172a"/><stop offset=".5" stop-color="#1e3a8a"/><stop offset="1" stop-color="#075985"/></linearGradient><filter id="glow"><feGaussianBlur stdDeviation="10" result="b"/><feMerge><feMergeNode in="b"/><feMergeNode in="SourceGraphic"/></feMerge></filter></defs><rect width="1920" height="1080" fill="url(#bg)"/><path d="M0 790C360 640 600 900 960 735s650-250 960-80v425H0Z" fill="#bfdbfe" opacity=".45"/><g opacity=".32"><circle cx="230" cy="200" r="5" fill="#0ea5e9"/><path d="M230 200 C 310 280, 400 140, 490 240" fill="none" stroke="#60a5fa" stroke-opacity=".28" stroke-width="3"/><circle cx="400" cy="297" r="5" fill="#0ea5e9"/><path d="M400 297 C 480 377, 570 237, 660 337" fill="none" stroke="#60a5fa" stroke-opacity=".28" stroke-width="3"/><circle cx="570" cy="154" r="5" fill="#0ea5e9"/><path d="M570 154 C 650 234, 740 94, 830 194" fill="none" stroke="#60a5fa" stroke-opacity=".28" stroke-width="3"/><circle cx="740" cy="251" r="5" fill="#0ea5e9"/><path d="M740 251 C 820 331, 910 191, 1000 291" fill="none" stroke="#60a5fa" stroke-opacity=".28" stroke-width="3"/><circle cx="910" cy="348" r="5" fill="#0ea5e9"/><path d="M910 348 C 990 428, 1080 288, 1170 388" fill="none" stroke="#60a5fa" stroke-opacity=".28" stroke-width="3"/><circle cx="1080" cy="205" r="5" fill="#0ea5e9"/><path d="M1080 205 C 1160 285, 1250 145, 1340 245" fill="none" stroke="#60a5fa" stroke-opacity=".28" stroke-width="3"/><circle cx="1250" cy="302" r="5" fill="#0ea5e9"/><path d="M1250 302 C 1330 382, 1420 242, 1510 342" fill="none" stroke="#60a5fa" stroke-opacity=".28" stroke-width="3"/><circle cx="1420" cy="159" r="5" fill="#0ea5e9"/><path d="M1420 159 C 1500 239, 1590 99, 1680 199" fill="none" stroke="#60a5fa" stroke-opacity=".28" stroke-width="3"/><circle cx="1590" cy="256" r="5" fill="#0ea5e9"/><path d="M1590 256 C 1670 336, 1760 196, 1850 296" fill="none" stroke="#60a5fa" stroke-opacity=".28" stroke-width="3"/><circle cx="260" cy="353" r="5" fill="#0ea5e9"/><path d="M260 353 C 340 433, 430 293, 520 393" fill="none" stroke="#60a5fa" stroke-opacity=".28" stroke-width="3"/></g><g filter="url(#glow)"><rect x="181" y="470" width="190" height="280" rx="18" fill="url(#metal)" stroke="#7dd3fc" stroke-opacity=".55"/><rect x="199" y="494" width="154" height="14" rx="7" fill="#38bdf8" opacity=".55"/><circle cx="343" cy="722" r="8" fill="#22c55e"/><rect x="431" y="420" width="207" height="311" rx="18" fill="url(#metal)" stroke="#7dd3fc" stroke-opacity=".55"/><rect x="449" y="444" width="171" height="14" rx="7" fill="#38bdf8" opacity=".55"/><circle cx="610" cy="703" r="8" fill="#22c55e"/><rect x="681" y="370" width="129" height="212" rx="18" fill="url(#metal)" stroke="#7dd3fc" stroke-opacity=".55"/><rect x="699" y="394" width="93" height="14" rx="7" fill="#38bdf8" opacity=".55"/><circle cx="782" cy="554" r="8" fill="#22c55e"/><rect x="931" y="470" width="146" height="243" rx="18" fill="url(#metal)" stroke="#7dd3fc" stroke-opacity=".55"/><rect x="949" y="494" width="110" height="14" rx="7" fill="#38bdf8" opacity=".55"/><circle cx="1049" cy="685" r="8" fill="#22c55e"/><rect x="1181" y="420" width="163" height="274" rx="18" fill="url(#metal)" stroke="#7dd3fc" stroke-opacity=".55"/><rect x="1199" y="444" width="127" height="14" rx="7" fill="#38bdf8" opacity=".55"/><circle cx="1316" cy="666" r="8" fill="#22c55e"/><rect x="1431" y="370" width="180" height="305" rx="18" fill="url(#metal)" stroke="#7dd3fc" stroke-opacity=".55"/><rect x="1449" y="394" width="144" height="14" rx="7" fill="#38bdf8" opacity=".55"/><circle cx="1583" cy="647" r="8" fill="#22c55e"/><rect x="1681" y="470" width="197" height="336" rx="18" fill="url(#metal)" stroke="#7dd3fc" stroke-opacity=".55"/><rect x="1699" y="494" width="161" height="14" rx="7" fill="#38bdf8" opacity=".55"/><circle cx="1850" cy="778" r="8" fill="#22c55e"/></g><path d="M870 620V440l140-95 105 65-95 75 125 135" fill="none" stroke="#2563eb" stroke-width="34" stroke-linecap="round" stroke-linejoin="round"/><circle cx="1010" cy="345" r="44" fill="#0ea5e9"/><text x="96" y="140" font-family="Arial, Helvetica, sans-serif" font-size="58" font-weight="700" fill="#0f172a">Industrial VFD</text><text x="100" y="202" font-family="Arial, Helvetica, sans-serif" font-size="28" fill="#2563eb">Ultra HD enterprise technology artwork · SEN Systems</text><rect x="96" y="888" width="520" height="6" rx="3" fill="#38bdf8"/><rect x="96" y="918" width="360" height="6" rx="3" fill="#93c5fd"/></svg>