<svg xmlns="http://www.w3.org/2000/svg" viewBox="0 0 1920 1080" role="img" aria-labelledby="title desc"><title id="title">Enterprise Server Rack</title><desc id="desc">Premium corporate blue technology illustration of Enterprise Server Rack</desc><defs><linearGradient id="bg" x1="0" x2="1" y1="0" y2="1"><stop stop-color="#ffffff"/><stop offset=".55" stop-color="#eef7ff"/><stop offset="1" stop-color="#dbeafe"/></linearGradient><linearGradient id="metal" x1="0" x2="1"><stop stop-color="#0f172a"/><stop offset=".5" stop-color="#1e3a8a"/><stop offset="1" stop-color="#075985"/></linearGradient><filter id="glow"><feGaussianBlur stdDeviation="10" result="b"/><feMerge><feMergeNode in="b"/><feMergeNode in="SourceGraphic"/></feMerge></filter></defs><rect width="1920" height="1080" fill="url(#bg)"/><path d="M0 790C360 640 600 900 960 735s650-250 960-80v425H0Z" fill="#bfdbfe" opacity=".45"/><g opacity=".32"><circle cx="230" cy="344" r="5" fill="#0ea5e9"/><path d="M230 344 C 310 424, 400 284, 490 384" fill="none" stroke="#60a5fa" stroke-opacity=".28" stroke-width="3"/><circle cx="400" cy="201" r="5" fill="#0ea5e9"/><path d="M400 201 C 480 281, 570 141, 660 241" fill="none" stroke="#60a5fa" stroke-opacity=".28" stroke-width="3"/><circle cx="570" cy="298" r="5" fill="#0ea5e9"/><path d="M570 298 C 650 378, 740 238, 830 338" fill="none" stroke="#60a5fa" stroke-opacity=".28" stroke-width="3"/><circle cx="740" cy="155" r="5" fill="#0ea5e9"/><path d="M740 155 C 820 235, 910 95, 1000 195" fill="none" stroke="#60a5fa" stroke-opacity=".28" stroke-width="3"/><circle cx="910" cy="252" r="5" fill="#0ea5e9"/><path d="M910 252 C 990 332, 1080 192, 1170 292" fill="none" stroke="#60a5fa" stroke-opacity=".28" stroke-width="3"/><circle cx="1080" cy="349" r="5" fill="#0ea5e9"/><path d="M1080 349 C 1160 429, 1250 289, 1340 389" fill="none" stroke="#60a5fa" stroke-opacity=".28" stroke-width="3"/><circle cx="1250" cy="206" r="5" fill="#0ea5e9"/><path d="M1250 206 C 1330 286, 1420 146, 1510 246" fill="none" stroke="#60a5fa" stroke-opacity=".28" stroke-width="3"/><circle cx="1420" cy="303" r="5" fill="#0ea5e9"/><path d="M1420 303 C 1500 383, 1590 243, 1680 343" fill="none" stroke="#60a5fa" stroke-opacity=".28" stroke-width="3"/><circle cx="1590" cy="160" r="5" fill="#0ea5e9"/><path d="M1590 160 C 1670 240, 1760 100, 1850 200" fill="none" stroke="#60a5fa" stroke-opacity=".28" stroke-width="3"/><circle cx="260" cy="257" r="5" fill="#0ea5e9"/><path d="M260 257 C 340 337, 430 197, 520 297" fill="none" stroke="#60a5fa" stroke-opacity=".28" stroke-width="3"/></g><g filter="url(#glow)"><rect x="194" y="470" width="199" height="234" rx="18" fill="url(#metal)" stroke="#7dd3fc" stroke-opacity=".55"/><rect x="212" y="494" width="163" height="14" rx="7" fill="#38bdf8" opacity=".55"/><circle cx="365" cy="676" r="8" fill="#22c55e"/><rect x="444" y="420" width="121" height="265" rx="18" fill="url(#metal)" stroke="#7dd3fc" stroke-opacity=".55"/><rect x="462" y="444" width="85" height="14" rx="7" fill="#38bdf8" opacity=".55"/><circle cx="537" cy="657" r="8" fill="#22c55e"/><rect x="694" y="370" width="138" height="296" rx="18" fill="url(#metal)" stroke="#7dd3fc" stroke-opacity=".55"/><rect x="712" y="394" width="102" height="14" rx="7" fill="#38bdf8" opacity=".55"/><circle cx="804" cy="638" r="8" fill="#22c55e"/><rect x="944" y="470" width="155" height="327" rx="18" fill="url(#metal)" stroke="#7dd3fc" stroke-opacity=".55"/><rect x="962" y="494" width="119" height="14" rx="7" fill="#38bdf8" opacity=".55"/><circle cx="1071" cy="769" r="8" fill="#22c55e"/><rect x="1194" y="420" width="172" height="228" rx="18" fill="url(#metal)" stroke="#7dd3fc" stroke-opacity=".55"/><rect x="1212" y="444" width="136" height="14" rx="7" fill="#38bdf8" opacity=".55"/><circle cx="1338" cy="620" r="8" fill="#22c55e"/><rect x="1444" y="370" width="189" height="259" rx="18" fill="url(#metal)" stroke="#7dd3fc" stroke-opacity=".55"/><rect x="1462" y="394" width="153" height="14" rx="7" fill="#38bdf8" opacity=".55"/><circle cx="1605" cy="601" r="8" fill="#22c55e"/><rect x="1694" y="470" width="206" height="290" rx="18" fill="url(#metal)" stroke="#7dd3fc" stroke-opacity=".55"/><rect x="1712" y="494" width="170" height="14" rx="7" fill="#38bdf8" opacity=".55"/><circle cx="1872" cy="732" r="8" fill="#22c55e"/></g><rect x="760" y="250" width="400" height="360" rx="34" fill="#0f172a" stroke="#7dd3fc" stroke-width="8"/><g opacity=".9"><rect x="810" y="310" width="300" height="28" rx="14" fill="#38bdf8"/><rect x="810" y="380" width="300" height="28" rx="14" fill="#60a5fa"/><rect x="810" y="450" width="300" height="28" rx="14" fill="#38bdf8"/></g><text x="96" y="140" font-family="Arial, Helvetica, sans-serif" font-size="58" font-weight="700" fill="#0f172a">Enterprise Server Rack</text><text x="100" y="202" font-family="Arial, Helvetica, sans-serif" font-size="28" fill="#2563eb">Ultra HD enterprise technology artwork · SEN Systems</text><rect x="96" y="888" width="520" height="6" rx="3" fill="#38bdf8"/><rect x="96" y="918" width="360" height="6" rx="3" fill="#93c5fd"/></svg>