<svg xmlns="http://www.w3.org/2000/svg" viewBox="0 0 1920 1080" role="img" aria-labelledby="title desc"><title id="title">Modern AI Data Center</title><desc id="desc">Premium corporate blue technology illustration of Modern AI Data Center</desc><defs><linearGradient id="bg" x1="0" x2="1" y1="0" y2="1"><stop stop-color="#ffffff"/><stop offset=".55" stop-color="#eef7ff"/><stop offset="1" stop-color="#dbeafe"/></linearGradient><linearGradient id="metal" x1="0" x2="1"><stop stop-color="#0f172a"/><stop offset=".5" stop-color="#1e3a8a"/><stop offset="1" stop-color="#075985"/></linearGradient><filter id="glow"><feGaussianBlur stdDeviation="10" result="b"/><feMerge><feMergeNode in="b"/><feMergeNode in="SourceGraphic"/></feMerge></filter></defs><rect width="1920" height="1080" fill="url(#bg)"/><path d="M0 790C360 640 600 900 960 735s650-250 960-80v425H0Z" fill="#bfdbfe" opacity=".45"/><g opacity=".32"><circle cx="230" cy="334" r="5" fill="#0ea5e9"/><path d="M230 334 C 310 414, 400 274, 490 374" fill="none" stroke="#60a5fa" stroke-opacity=".28" stroke-width="3"/><circle cx="400" cy="191" r="5" fill="#0ea5e9"/><path d="M400 191 C 480 271, 570 131, 660 231" fill="none" stroke="#60a5fa" stroke-opacity=".28" stroke-width="3"/><circle cx="570" cy="288" r="5" fill="#0ea5e9"/><path d="M570 288 C 650 368, 740 228, 830 328" fill="none" stroke="#60a5fa" stroke-opacity=".28" stroke-width="3"/><circle cx="740" cy="145" r="5" fill="#0ea5e9"/><path d="M740 145 C 820 225, 910 85, 1000 185" fill="none" stroke="#60a5fa" stroke-opacity=".28" stroke-width="3"/><circle cx="910" cy="242" r="5" fill="#0ea5e9"/><path d="M910 242 C 990 322, 1080 182, 1170 282" fill="none" stroke="#60a5fa" stroke-opacity=".28" stroke-width="3"/><circle cx="1080" cy="339" r="5" fill="#0ea5e9"/><path d="M1080 339 C 1160 419, 1250 279, 1340 379" fill="none" stroke="#60a5fa" stroke-opacity=".28" stroke-width="3"/><circle cx="1250" cy="196" r="5" fill="#0ea5e9"/><path d="M1250 196 C 1330 276, 1420 136, 1510 236" fill="none" stroke="#60a5fa" stroke-opacity=".28" stroke-width="3"/><circle cx="1420" cy="293" r="5" fill="#0ea5e9"/><path d="M1420 293 C 1500 373, 1590 233, 1680 333" fill="none" stroke="#60a5fa" stroke-opacity=".28" stroke-width="3"/><circle cx="1590" cy="150" r="5" fill="#0ea5e9"/><path d="M1590 150 C 1670 230, 1760 90, 1850 190" fill="none" stroke="#60a5fa" stroke-opacity=".28" stroke-width="3"/><circle cx="260" cy="247" r="5" fill="#0ea5e9"/><path d="M260 247 C 340 327, 430 187, 520 287" fill="none" stroke="#60a5fa" stroke-opacity=".28" stroke-width="3"/></g><g filter="url(#glow)"><rect x="197" y="470" width="139" height="244" rx="18" fill="url(#metal)" stroke="#7dd3fc" stroke-opacity=".55"/><rect x="215" y="494" width="103" height="14" rx="7" fill="#38bdf8" opacity=".55"/><circle cx="308" cy="686" r="8" fill="#22c55e"/><rect x="447" y="420" width="156" height="275" rx="18" fill="url(#metal)" stroke="#7dd3fc" stroke-opacity=".55"/><rect x="465" y="444" width="120" height="14" rx="7" fill="#38bdf8" opacity=".55"/><circle cx="575" cy="667" r="8" fill="#22c55e"/><rect x="697" y="370" width="173" height="306" rx="18" fill="url(#metal)" stroke="#7dd3fc" stroke-opacity=".55"/><rect x="715" y="394" width="137" height="14" rx="7" fill="#38bdf8" opacity=".55"/><circle cx="842" cy="648" r="8" fill="#22c55e"/><rect x="947" y="470" width="190" height="337" rx="18" fill="url(#metal)" stroke="#7dd3fc" stroke-opacity=".55"/><rect x="965" y="494" width="154" height="14" rx="7" fill="#38bdf8" opacity=".55"/><circle cx="1109" cy="779" r="8" fill="#22c55e"/><rect x="1197" y="420" width="207" height="238" rx="18" fill="url(#metal)" stroke="#7dd3fc" stroke-opacity=".55"/><rect x="1215" y="444" width="171" height="14" rx="7" fill="#38bdf8" opacity=".55"/><circle cx="1376" cy="630" r="8" fill="#22c55e"/><rect x="1447" y="370" width="129" height="269" rx="18" fill="url(#metal)" stroke="#7dd3fc" stroke-opacity=".55"/><rect x="1465" y="394" width="93" height="14" rx="7" fill="#38bdf8" opacity=".55"/><circle cx="1548" cy="611" r="8" fill="#22c55e"/><rect x="1697" y="470" width="146" height="300" rx="18" fill="url(#metal)" stroke="#7dd3fc" stroke-opacity=".55"/><rect x="1715" y="494" width="110" height="14" rx="7" fill="#38bdf8" opacity=".55"/><circle cx="1815" cy="742" r="8" fill="#22c55e"/></g><rect x="760" y="250" width="400" height="360" rx="34" fill="#0f172a" stroke="#7dd3fc" stroke-width="8"/><g opacity=".9"><rect x="810" y="310" width="300" height="28" rx="14" fill="#38bdf8"/><rect x="810" y="380" width="300" height="28" rx="14" fill="#60a5fa"/><rect x="810" y="450" width="300" height="28" rx="14" fill="#38bdf8"/></g><text x="96" y="140" font-family="Arial, Helvetica, sans-serif" font-size="58" font-weight="700" fill="#0f172a">Modern AI Data Center</text><text x="100" y="202" font-family="Arial, Helvetica, sans-serif" font-size="28" fill="#2563eb">Ultra HD enterprise technology artwork · SEN Systems</text><rect x="96" y="888" width="520" height="6" rx="3" fill="#38bdf8"/><rect x="96" y="918" width="360" height="6" rx="3" fill="#93c5fd"/></svg>