<svg xmlns="http://www.w3.org/2000/svg" viewBox="0 0 1920 1080" role="img" aria-labelledby="title desc"><title id="title">SEN Enterprise Technology</title><desc id="desc">Premium corporate blue technology illustration of SEN Enterprise Technology</desc><defs><linearGradient id="bg" x1="0" x2="1" y1="0" y2="1"><stop stop-color="#ffffff"/><stop offset=".55" stop-color="#eef7ff"/><stop offset="1" stop-color="#dbeafe"/></linearGradient><linearGradient id="metal" x1="0" x2="1"><stop stop-color="#0f172a"/><stop offset=".5" stop-color="#1e3a8a"/><stop offset="1" stop-color="#075985"/></linearGradient><filter id="glow"><feGaussianBlur stdDeviation="10" result="b"/><feMerge><feMergeNode in="b"/><feMergeNode in="SourceGraphic"/></feMerge></filter></defs><rect width="1920" height="1080" fill="url(#bg)"/><path d="M0 790C360 640 600 900 960 735s650-250 960-80v425H0Z" fill="#bfdbfe" opacity=".45"/><g opacity=".32"><circle cx="230" cy="314" r="5" fill="#0ea5e9"/><path d="M230 314 C 310 394, 400 254, 490 354" fill="none" stroke="#60a5fa" stroke-opacity=".28" stroke-width="3"/><circle cx="400" cy="171" r="5" fill="#0ea5e9"/><path d="M400 171 C 480 251, 570 111, 660 211" fill="none" stroke="#60a5fa" stroke-opacity=".28" stroke-width="3"/><circle cx="570" cy="268" r="5" fill="#0ea5e9"/><path d="M570 268 C 650 348, 740 208, 830 308" fill="none" stroke="#60a5fa" stroke-opacity=".28" stroke-width="3"/><circle cx="740" cy="365" r="5" fill="#0ea5e9"/><path d="M740 365 C 820 445, 910 305, 1000 405" fill="none" stroke="#60a5fa" stroke-opacity=".28" stroke-width="3"/><circle cx="910" cy="222" r="5" fill="#0ea5e9"/><path d="M910 222 C 990 302, 1080 162, 1170 262" fill="none" stroke="#60a5fa" stroke-opacity=".28" stroke-width="3"/><circle cx="1080" cy="319" r="5" fill="#0ea5e9"/><path d="M1080 319 C 1160 399, 1250 259, 1340 359" fill="none" stroke="#60a5fa" stroke-opacity=".28" stroke-width="3"/><circle cx="1250" cy="176" r="5" fill="#0ea5e9"/><path d="M1250 176 C 1330 256, 1420 116, 1510 216" fill="none" stroke="#60a5fa" stroke-opacity=".28" stroke-width="3"/><circle cx="1420" cy="273" r="5" fill="#0ea5e9"/><path d="M1420 273 C 1500 353, 1590 213, 1680 313" fill="none" stroke="#60a5fa" stroke-opacity=".28" stroke-width="3"/><circle cx="1590" cy="130" r="5" fill="#0ea5e9"/><path d="M1590 130 C 1670 210, 1760 70, 1850 170" fill="none" stroke="#60a5fa" stroke-opacity=".28" stroke-width="3"/><circle cx="260" cy="227" r="5" fill="#0ea5e9"/><path d="M260 227 C 340 307, 430 167, 520 267" fill="none" stroke="#60a5fa" stroke-opacity=".28" stroke-width="3"/></g><g filter="url(#glow)"><rect x="187" y="470" width="169" height="334" rx="18" fill="url(#metal)" stroke="#7dd3fc" stroke-opacity=".55"/><rect x="205" y="494" width="133" height="14" rx="7" fill="#38bdf8" opacity=".55"/><circle cx="328" cy="776" r="8" fill="#22c55e"/><rect x="437" y="420" width="186" height="235" rx="18" fill="url(#metal)" stroke="#7dd3fc" stroke-opacity=".55"/><rect x="455" y="444" width="150" height="14" rx="7" fill="#38bdf8" opacity=".55"/><circle cx="595" cy="627" r="8" fill="#22c55e"/><rect x="687" y="370" width="203" height="266" rx="18" fill="url(#metal)" stroke="#7dd3fc" stroke-opacity=".55"/><rect x="705" y="394" width="167" height="14" rx="7" fill="#38bdf8" opacity=".55"/><circle cx="862" cy="608" r="8" fill="#22c55e"/><rect x="937" y="470" width="125" height="297" rx="18" fill="url(#metal)" stroke="#7dd3fc" stroke-opacity=".55"/><rect x="955" y="494" width="89" height="14" rx="7" fill="#38bdf8" opacity=".55"/><circle cx="1034" cy="739" r="8" fill="#22c55e"/><rect x="1187" y="420" width="142" height="328" rx="18" fill="url(#metal)" stroke="#7dd3fc" stroke-opacity=".55"/><rect x="1205" y="444" width="106" height="14" rx="7" fill="#38bdf8" opacity=".55"/><circle cx="1301" cy="720" r="8" fill="#22c55e"/><rect x="1437" y="370" width="159" height="229" rx="18" fill="url(#metal)" stroke="#7dd3fc" stroke-opacity=".55"/><rect x="1455" y="394" width="123" height="14" rx="7" fill="#38bdf8" opacity=".55"/><circle cx="1568" cy="571" r="8" fill="#22c55e"/><rect x="1687" y="470" width="176" height="260" rx="18" fill="url(#metal)" stroke="#7dd3fc" stroke-opacity=".55"/><rect x="1705" y="494" width="140" height="14" rx="7" fill="#38bdf8" opacity=".55"/><circle cx="1835" cy="702" r="8" fill="#22c55e"/></g><rect x="760" y="250" width="400" height="360" rx="34" fill="#0f172a" stroke="#7dd3fc" stroke-width="8"/><g opacity=".9"><rect x="810" y="310" width="300" height="28" rx="14" fill="#38bdf8"/><rect x="810" y="380" width="300" height="28" rx="14" fill="#60a5fa"/><rect x="810" y="450" width="300" height="28" rx="14" fill="#38bdf8"/></g><text x="96" y="140" font-family="Arial, Helvetica, sans-serif" font-size="58" font-weight="700" fill="#0f172a">SEN Enterprise Technology</text><text x="100" y="202" font-family="Arial, Helvetica, sans-serif" font-size="28" fill="#2563eb">Ultra HD enterprise technology artwork · SEN Systems</text><rect x="96" y="888" width="520" height="6" rx="3" fill="#38bdf8"/><rect x="96" y="918" width="360" height="6" rx="3" fill="#93c5fd"/></svg>