<svg xmlns="http://www.w3.org/2000/svg" viewBox="0 0 1920 1080" role="img" aria-labelledby="title desc"><title id="title">Cloud Computing Technology</title><desc id="desc">Premium corporate blue technology illustration of Cloud Computing Technology</desc><defs><linearGradient id="bg" x1="0" x2="1" y1="0" y2="1"><stop stop-color="#ffffff"/><stop offset=".55" stop-color="#eef7ff"/><stop offset="1" stop-color="#dbeafe"/></linearGradient><linearGradient id="metal" x1="0" x2="1"><stop stop-color="#0f172a"/><stop offset=".5" stop-color="#1e3a8a"/><stop offset="1" stop-color="#075985"/></linearGradient><filter id="glow"><feGaussianBlur stdDeviation="10" result="b"/><feMerge><feMergeNode in="b"/><feMergeNode in="SourceGraphic"/></feMerge></filter></defs><rect width="1920" height="1080" fill="url(#bg)"/><path d="M0 790C360 640 600 900 960 735s650-250 960-80v425H0Z" fill="#bfdbfe" opacity=".45"/><g opacity=".32"><circle cx="230" cy="199" r="5" fill="#0ea5e9"/><path d="M230 199 C 310 279, 400 139, 490 239" fill="none" stroke="#60a5fa" stroke-opacity=".28" stroke-width="3"/><circle cx="400" cy="296" r="5" fill="#0ea5e9"/><path d="M400 296 C 480 376, 570 236, 660 336" fill="none" stroke="#60a5fa" stroke-opacity=".28" stroke-width="3"/><circle cx="570" cy="153" r="5" fill="#0ea5e9"/><path d="M570 153 C 650 233, 740 93, 830 193" fill="none" stroke="#60a5fa" stroke-opacity=".28" stroke-width="3"/><circle cx="740" cy="250" r="5" fill="#0ea5e9"/><path d="M740 250 C 820 330, 910 190, 1000 290" fill="none" stroke="#60a5fa" stroke-opacity=".28" stroke-width="3"/><circle cx="910" cy="347" r="5" fill="#0ea5e9"/><path d="M910 347 C 990 427, 1080 287, 1170 387" fill="none" stroke="#60a5fa" stroke-opacity=".28" stroke-width="3"/><circle cx="1080" cy="204" r="5" fill="#0ea5e9"/><path d="M1080 204 C 1160 284, 1250 144, 1340 244" fill="none" stroke="#60a5fa" stroke-opacity=".28" stroke-width="3"/><circle cx="1250" cy="301" r="5" fill="#0ea5e9"/><path d="M1250 301 C 1330 381, 1420 241, 1510 341" fill="none" stroke="#60a5fa" stroke-opacity=".28" stroke-width="3"/><circle cx="1420" cy="158" r="5" fill="#0ea5e9"/><path d="M1420 158 C 1500 238, 1590 98, 1680 198" fill="none" stroke="#60a5fa" stroke-opacity=".28" stroke-width="3"/><circle cx="1590" cy="255" r="5" fill="#0ea5e9"/><path d="M1590 255 C 1670 335, 1760 195, 1850 295" fill="none" stroke="#60a5fa" stroke-opacity=".28" stroke-width="3"/><circle cx="260" cy="352" r="5" fill="#0ea5e9"/><path d="M260 352 C 340 432, 430 292, 520 392" fill="none" stroke="#60a5fa" stroke-opacity=".28" stroke-width="3"/></g><g filter="url(#glow)"><rect x="190" y="470" width="144" height="259" rx="18" fill="url(#metal)" stroke="#7dd3fc" stroke-opacity=".55"/><rect x="208" y="494" width="108" height="14" rx="7" fill="#38bdf8" opacity=".55"/><circle cx="306" cy="701" r="8" fill="#22c55e"/><rect x="440" y="420" width="161" height="290" rx="18" fill="url(#metal)" stroke="#7dd3fc" stroke-opacity=".55"/><rect x="458" y="444" width="125" height="14" rx="7" fill="#38bdf8" opacity=".55"/><circle cx="573" cy="682" r="8" fill="#22c55e"/><rect x="690" y="370" width="178" height="321" rx="18" fill="url(#metal)" stroke="#7dd3fc" stroke-opacity=".55"/><rect x="708" y="394" width="142" height="14" rx="7" fill="#38bdf8" opacity=".55"/><circle cx="840" cy="663" r="8" fill="#22c55e"/><rect x="940" y="470" width="195" height="222" rx="18" fill="url(#metal)" stroke="#7dd3fc" stroke-opacity=".55"/><rect x="958" y="494" width="159" height="14" rx="7" fill="#38bdf8" opacity=".55"/><circle cx="1107" cy="664" r="8" fill="#22c55e"/><rect x="1190" y="420" width="212" height="253" rx="18" fill="url(#metal)" stroke="#7dd3fc" stroke-opacity=".55"/><rect x="1208" y="444" width="176" height="14" rx="7" fill="#38bdf8" opacity=".55"/><circle cx="1374" cy="645" r="8" fill="#22c55e"/><rect x="1440" y="370" width="134" height="284" rx="18" fill="url(#metal)" stroke="#7dd3fc" stroke-opacity=".55"/><rect x="1458" y="394" width="98" height="14" rx="7" fill="#38bdf8" opacity=".55"/><circle cx="1546" cy="626" r="8" fill="#22c55e"/><rect x="1690" y="470" width="151" height="315" rx="18" fill="url(#metal)" stroke="#7dd3fc" stroke-opacity=".55"/><rect x="1708" y="494" width="115" height="14" rx="7" fill="#38bdf8" opacity=".55"/><circle cx="1813" cy="757" r="8" fill="#22c55e"/></g><ellipse cx="960" cy="420" rx="255" ry="100" fill="none" stroke="#38bdf8" stroke-width="8" opacity=".65"/><ellipse cx="960" cy="420" rx="100" ry="255" fill="none" stroke="#60a5fa" stroke-width="8" opacity=".45"/><circle cx="960" cy="420" r="64" fill="#0f172a" stroke="#7dd3fc" stroke-width="10"/><text x="96" y="140" font-family="Arial, Helvetica, sans-serif" font-size="58" font-weight="700" fill="#0f172a">Cloud Computing Technology</text><text x="100" y="202" font-family="Arial, Helvetica, sans-serif" font-size="28" fill="#2563eb">Ultra HD enterprise technology artwork · SEN Systems</text><rect x="96" y="888" width="520" height="6" rx="3" fill="#38bdf8"/><rect x="96" y="918" width="360" height="6" rx="3" fill="#93c5fd"/></svg>