<svg xmlns="http://www.w3.org/2000/svg" viewBox="0 0 1920 1080" role="img" aria-labelledby="title desc"><title id="title">Global Network Infrastructure</title><desc id="desc">Premium corporate blue technology illustration of Global Network Infrastructure</desc><defs><linearGradient id="bg" x1="0" x2="1" y1="0" y2="1"><stop stop-color="#ffffff"/><stop offset=".55" stop-color="#eef7ff"/><stop offset="1" stop-color="#dbeafe"/></linearGradient><linearGradient id="metal" x1="0" x2="1"><stop stop-color="#0f172a"/><stop offset=".5" stop-color="#1e3a8a"/><stop offset="1" stop-color="#075985"/></linearGradient><filter id="glow"><feGaussianBlur stdDeviation="10" result="b"/><feMerge><feMergeNode in="b"/><feMergeNode in="SourceGraphic"/></feMerge></filter></defs><rect width="1920" height="1080" fill="url(#bg)"/><path d="M0 790C360 640 600 900 960 735s650-250 960-80v425H0Z" fill="#bfdbfe" opacity=".45"/><g opacity=".32"><circle cx="230" cy="158" r="5" fill="#0ea5e9"/><path d="M230 158 C 310 238, 400 98, 490 198" fill="none" stroke="#60a5fa" stroke-opacity=".28" stroke-width="3"/><circle cx="400" cy="255" r="5" fill="#0ea5e9"/><path d="M400 255 C 480 335, 570 195, 660 295" fill="none" stroke="#60a5fa" stroke-opacity=".28" stroke-width="3"/><circle cx="570" cy="352" r="5" fill="#0ea5e9"/><path d="M570 352 C 650 432, 740 292, 830 392" fill="none" stroke="#60a5fa" stroke-opacity=".28" stroke-width="3"/><circle cx="740" cy="209" r="5" fill="#0ea5e9"/><path d="M740 209 C 820 289, 910 149, 1000 249" fill="none" stroke="#60a5fa" stroke-opacity=".28" stroke-width="3"/><circle cx="910" cy="306" r="5" fill="#0ea5e9"/><path d="M910 306 C 990 386, 1080 246, 1170 346" fill="none" stroke="#60a5fa" stroke-opacity=".28" stroke-width="3"/><circle cx="1080" cy="163" r="5" fill="#0ea5e9"/><path d="M1080 163 C 1160 243, 1250 103, 1340 203" fill="none" stroke="#60a5fa" stroke-opacity=".28" stroke-width="3"/><circle cx="1250" cy="260" r="5" fill="#0ea5e9"/><path d="M1250 260 C 1330 340, 1420 200, 1510 300" fill="none" stroke="#60a5fa" stroke-opacity=".28" stroke-width="3"/><circle cx="1420" cy="357" r="5" fill="#0ea5e9"/><path d="M1420 357 C 1500 437, 1590 297, 1680 397" fill="none" stroke="#60a5fa" stroke-opacity=".28" stroke-width="3"/><circle cx="1590" cy="214" r="5" fill="#0ea5e9"/><path d="M1590 214 C 1670 294, 1760 154, 1850 254" fill="none" stroke="#60a5fa" stroke-opacity=".28" stroke-width="3"/><circle cx="260" cy="311" r="5" fill="#0ea5e9"/><path d="M260 311 C 340 391, 430 251, 520 351" fill="none" stroke="#60a5fa" stroke-opacity=".28" stroke-width="3"/></g><g filter="url(#glow)"><rect x="185" y="470" width="148" height="238" rx="18" fill="url(#metal)" stroke="#7dd3fc" stroke-opacity=".55"/><rect x="203" y="494" width="112" height="14" rx="7" fill="#38bdf8" opacity=".55"/><circle cx="305" cy="680" r="8" fill="#22c55e"/><rect x="435" y="420" width="165" height="269" rx="18" fill="url(#metal)" stroke="#7dd3fc" stroke-opacity=".55"/><rect x="453" y="444" width="129" height="14" rx="7" fill="#38bdf8" opacity=".55"/><circle cx="572" cy="661" r="8" fill="#22c55e"/><rect x="685" y="370" width="182" height="300" rx="18" fill="url(#metal)" stroke="#7dd3fc" stroke-opacity=".55"/><rect x="703" y="394" width="146" height="14" rx="7" fill="#38bdf8" opacity=".55"/><circle cx="839" cy="642" r="8" fill="#22c55e"/><rect x="935" y="470" width="199" height="331" rx="18" fill="url(#metal)" stroke="#7dd3fc" stroke-opacity=".55"/><rect x="953" y="494" width="163" height="14" rx="7" fill="#38bdf8" opacity=".55"/><circle cx="1106" cy="773" r="8" fill="#22c55e"/><rect x="1185" y="420" width="121" height="232" rx="18" fill="url(#metal)" stroke="#7dd3fc" stroke-opacity=".55"/><rect x="1203" y="444" width="85" height="14" rx="7" fill="#38bdf8" opacity=".55"/><circle cx="1278" cy="624" r="8" fill="#22c55e"/><rect x="1435" y="370" width="138" height="263" rx="18" fill="url(#metal)" stroke="#7dd3fc" stroke-opacity=".55"/><rect x="1453" y="394" width="102" height="14" rx="7" fill="#38bdf8" opacity=".55"/><circle cx="1545" cy="605" r="8" fill="#22c55e"/><rect x="1685" y="470" width="155" height="294" rx="18" fill="url(#metal)" stroke="#7dd3fc" stroke-opacity=".55"/><rect x="1703" y="494" width="119" height="14" rx="7" fill="#38bdf8" opacity=".55"/><circle cx="1812" cy="736" r="8" fill="#22c55e"/></g><path d="M850 370h220a70 70 0 0 1 0 140H850a70 70 0 0 1 0-140Z" fill="#fff" stroke="#93c5fd" stroke-width="8"/><circle cx="850" cy="440" r="115" fill="none" stroke="#38bdf8" stroke-width="28" opacity=".75"/><text x="96" y="140" font-family="Arial, Helvetica, sans-serif" font-size="58" font-weight="700" fill="#0f172a">Global Network Infrastructure</text><text x="100" y="202" font-family="Arial, Helvetica, sans-serif" font-size="28" fill="#2563eb">Ultra HD enterprise technology artwork · SEN Systems</text><rect x="96" y="888" width="520" height="6" rx="3" fill="#38bdf8"/><rect x="96" y="918" width="360" height="6" rx="3" fill="#93c5fd"/></svg>