<svg xmlns="http://www.w3.org/2000/svg" viewBox="0 0 1920 1080" role="img" aria-labelledby="title desc"><title id="title">Core Network Router Switch</title><desc id="desc">Premium corporate blue technology illustration of Core Network Router Switch</desc><defs><linearGradient id="bg" x1="0" x2="1" y1="0" y2="1"><stop stop-color="#ffffff"/><stop offset=".55" stop-color="#eef7ff"/><stop offset="1" stop-color="#dbeafe"/></linearGradient><linearGradient id="metal" x1="0" x2="1"><stop stop-color="#0f172a"/><stop offset=".5" stop-color="#1e3a8a"/><stop offset="1" stop-color="#075985"/></linearGradient><filter id="glow"><feGaussianBlur stdDeviation="10" result="b"/><feMerge><feMergeNode in="b"/><feMergeNode in="SourceGraphic"/></feMerge></filter></defs><rect width="1920" height="1080" fill="url(#bg)"/><path d="M0 790C360 640 600 900 960 735s650-250 960-80v425H0Z" fill="#bfdbfe" opacity=".45"/><g opacity=".32"><circle cx="230" cy="166" r="5" fill="#0ea5e9"/><path d="M230 166 C 310 246, 400 106, 490 206" fill="none" stroke="#60a5fa" stroke-opacity=".28" stroke-width="3"/><circle cx="400" cy="263" r="5" fill="#0ea5e9"/><path d="M400 263 C 480 343, 570 203, 660 303" fill="none" stroke="#60a5fa" stroke-opacity=".28" stroke-width="3"/><circle cx="570" cy="360" r="5" fill="#0ea5e9"/><path d="M570 360 C 650 440, 740 300, 830 400" fill="none" stroke="#60a5fa" stroke-opacity=".28" stroke-width="3"/><circle cx="740" cy="217" r="5" fill="#0ea5e9"/><path d="M740 217 C 820 297, 910 157, 1000 257" fill="none" stroke="#60a5fa" stroke-opacity=".28" stroke-width="3"/><circle cx="910" cy="314" r="5" fill="#0ea5e9"/><path d="M910 314 C 990 394, 1080 254, 1170 354" fill="none" stroke="#60a5fa" stroke-opacity=".28" stroke-width="3"/><circle cx="1080" cy="171" r="5" fill="#0ea5e9"/><path d="M1080 171 C 1160 251, 1250 111, 1340 211" fill="none" stroke="#60a5fa" stroke-opacity=".28" stroke-width="3"/><circle cx="1250" cy="268" r="5" fill="#0ea5e9"/><path d="M1250 268 C 1330 348, 1420 208, 1510 308" fill="none" stroke="#60a5fa" stroke-opacity=".28" stroke-width="3"/><circle cx="1420" cy="365" r="5" fill="#0ea5e9"/><path d="M1420 365 C 1500 445, 1590 305, 1680 405" fill="none" stroke="#60a5fa" stroke-opacity=".28" stroke-width="3"/><circle cx="1590" cy="222" r="5" fill="#0ea5e9"/><path d="M1590 222 C 1670 302, 1760 162, 1850 262" fill="none" stroke="#60a5fa" stroke-opacity=".28" stroke-width="3"/><circle cx="260" cy="319" r="5" fill="#0ea5e9"/><path d="M260 319 C 340 399, 430 259, 520 359" fill="none" stroke="#60a5fa" stroke-opacity=".28" stroke-width="3"/></g><g filter="url(#glow)"><rect x="200" y="470" width="211" height="316" rx="18" fill="url(#metal)" stroke="#7dd3fc" stroke-opacity=".55"/><rect x="218" y="494" width="175" height="14" rx="7" fill="#38bdf8" opacity=".55"/><circle cx="383" cy="758" r="8" fill="#22c55e"/><rect x="450" y="420" width="133" height="217" rx="18" fill="url(#metal)" stroke="#7dd3fc" stroke-opacity=".55"/><rect x="468" y="444" width="97" height="14" rx="7" fill="#38bdf8" opacity=".55"/><circle cx="555" cy="609" r="8" fill="#22c55e"/><rect x="700" y="370" width="150" height="248" rx="18" fill="url(#metal)" stroke="#7dd3fc" stroke-opacity=".55"/><rect x="718" y="394" width="114" height="14" rx="7" fill="#38bdf8" opacity=".55"/><circle cx="822" cy="590" r="8" fill="#22c55e"/><rect x="950" y="470" width="167" height="279" rx="18" fill="url(#metal)" stroke="#7dd3fc" stroke-opacity=".55"/><rect x="968" y="494" width="131" height="14" rx="7" fill="#38bdf8" opacity=".55"/><circle cx="1089" cy="721" r="8" fill="#22c55e"/><rect x="1200" y="420" width="184" height="310" rx="18" fill="url(#metal)" stroke="#7dd3fc" stroke-opacity=".55"/><rect x="1218" y="444" width="148" height="14" rx="7" fill="#38bdf8" opacity=".55"/><circle cx="1356" cy="702" r="8" fill="#22c55e"/><rect x="1450" y="370" width="201" height="211" rx="18" fill="url(#metal)" stroke="#7dd3fc" stroke-opacity=".55"/><rect x="1468" y="394" width="165" height="14" rx="7" fill="#38bdf8" opacity=".55"/><circle cx="1623" cy="553" r="8" fill="#22c55e"/><rect x="1700" y="470" width="123" height="242" rx="18" fill="url(#metal)" stroke="#7dd3fc" stroke-opacity=".55"/><rect x="1718" y="494" width="87" height="14" rx="7" fill="#38bdf8" opacity=".55"/><circle cx="1795" cy="684" r="8" fill="#22c55e"/></g><ellipse cx="960" cy="420" rx="255" ry="100" fill="none" stroke="#38bdf8" stroke-width="8" opacity=".65"/><ellipse cx="960" cy="420" rx="100" ry="255" fill="none" stroke="#60a5fa" stroke-width="8" opacity=".45"/><circle cx="960" cy="420" r="64" fill="#0f172a" stroke="#7dd3fc" stroke-width="10"/><text x="96" y="140" font-family="Arial, Helvetica, sans-serif" font-size="58" font-weight="700" fill="#0f172a">Core Network Router Switch</text><text x="100" y="202" font-family="Arial, Helvetica, sans-serif" font-size="28" fill="#2563eb">Ultra HD enterprise technology artwork · SEN Systems</text><rect x="96" y="888" width="520" height="6" rx="3" fill="#38bdf8"/><rect x="96" y="918" width="360" height="6" rx="3" fill="#93c5fd"/></svg>