<svg xmlns="http://www.w3.org/2000/svg" viewBox="0 0 1920 1080" role="img" aria-labelledby="title desc"><title id="title">Diagnostic Ultrasound System</title><desc id="desc">Premium corporate blue technology illustration of Diagnostic Ultrasound System</desc><defs><linearGradient id="bg" x1="0" x2="1" y1="0" y2="1"><stop stop-color="#ffffff"/><stop offset=".55" stop-color="#eef7ff"/><stop offset="1" stop-color="#dbeafe"/></linearGradient><linearGradient id="metal" x1="0" x2="1"><stop stop-color="#0f172a"/><stop offset=".5" stop-color="#1e3a8a"/><stop offset="1" stop-color="#075985"/></linearGradient><filter id="glow"><feGaussianBlur stdDeviation="10" result="b"/><feMerge><feMergeNode in="b"/><feMergeNode in="SourceGraphic"/></feMerge></filter></defs><rect width="1920" height="1080" fill="url(#bg)"/><path d="M0 790C360 640 600 900 960 735s650-250 960-80v425H0Z" fill="#bfdbfe" opacity=".45"/><g opacity=".32"><circle cx="230" cy="282" r="5" fill="#0ea5e9"/><path d="M230 282 C 310 362, 400 222, 490 322" fill="none" stroke="#60a5fa" stroke-opacity=".28" stroke-width="3"/><circle cx="400" cy="139" r="5" fill="#0ea5e9"/><path d="M400 139 C 480 219, 570 79, 660 179" fill="none" stroke="#60a5fa" stroke-opacity=".28" stroke-width="3"/><circle cx="570" cy="236" r="5" fill="#0ea5e9"/><path d="M570 236 C 650 316, 740 176, 830 276" fill="none" stroke="#60a5fa" stroke-opacity=".28" stroke-width="3"/><circle cx="740" cy="333" r="5" fill="#0ea5e9"/><path d="M740 333 C 820 413, 910 273, 1000 373" fill="none" stroke="#60a5fa" stroke-opacity=".28" stroke-width="3"/><circle cx="910" cy="190" r="5" fill="#0ea5e9"/><path d="M910 190 C 990 270, 1080 130, 1170 230" fill="none" stroke="#60a5fa" stroke-opacity=".28" stroke-width="3"/><circle cx="1080" cy="287" r="5" fill="#0ea5e9"/><path d="M1080 287 C 1160 367, 1250 227, 1340 327" fill="none" stroke="#60a5fa" stroke-opacity=".28" stroke-width="3"/><circle cx="1250" cy="144" r="5" fill="#0ea5e9"/><path d="M1250 144 C 1330 224, 1420 84, 1510 184" fill="none" stroke="#60a5fa" stroke-opacity=".28" stroke-width="3"/><circle cx="1420" cy="241" r="5" fill="#0ea5e9"/><path d="M1420 241 C 1500 321, 1590 181, 1680 281" fill="none" stroke="#60a5fa" stroke-opacity=".28" stroke-width="3"/><circle cx="1590" cy="338" r="5" fill="#0ea5e9"/><path d="M1590 338 C 1670 418, 1760 278, 1850 378" fill="none" stroke="#60a5fa" stroke-opacity=".28" stroke-width="3"/><circle cx="260" cy="195" r="5" fill="#0ea5e9"/><path d="M260 195 C 340 275, 430 135, 520 235" fill="none" stroke="#60a5fa" stroke-opacity=".28" stroke-width="3"/></g><g filter="url(#glow)"><rect x="201" y="470" width="137" height="302" rx="18" fill="url(#metal)" stroke="#7dd3fc" stroke-opacity=".55"/><rect x="219" y="494" width="101" height="14" rx="7" fill="#38bdf8" opacity=".55"/><circle cx="310" cy="744" r="8" fill="#22c55e"/><rect x="451" y="420" width="154" height="333" rx="18" fill="url(#metal)" stroke="#7dd3fc" stroke-opacity=".55"/><rect x="469" y="444" width="118" height="14" rx="7" fill="#38bdf8" opacity=".55"/><circle cx="577" cy="725" r="8" fill="#22c55e"/><rect x="701" y="370" width="171" height="234" rx="18" fill="url(#metal)" stroke="#7dd3fc" stroke-opacity=".55"/><rect x="719" y="394" width="135" height="14" rx="7" fill="#38bdf8" opacity=".55"/><circle cx="844" cy="576" r="8" fill="#22c55e"/><rect x="951" y="470" width="188" height="265" rx="18" fill="url(#metal)" stroke="#7dd3fc" stroke-opacity=".55"/><rect x="969" y="494" width="152" height="14" rx="7" fill="#38bdf8" opacity=".55"/><circle cx="1111" cy="707" r="8" fill="#22c55e"/><rect x="1201" y="420" width="205" height="296" rx="18" fill="url(#metal)" stroke="#7dd3fc" stroke-opacity=".55"/><rect x="1219" y="444" width="169" height="14" rx="7" fill="#38bdf8" opacity=".55"/><circle cx="1378" cy="688" r="8" fill="#22c55e"/><rect x="1451" y="370" width="127" height="327" rx="18" fill="url(#metal)" stroke="#7dd3fc" stroke-opacity=".55"/><rect x="1469" y="394" width="91" height="14" rx="7" fill="#38bdf8" opacity=".55"/><circle cx="1550" cy="669" r="8" fill="#22c55e"/><rect x="1701" y="470" width="144" height="228" rx="18" fill="url(#metal)" stroke="#7dd3fc" stroke-opacity=".55"/><rect x="1719" y="494" width="108" height="14" rx="7" fill="#38bdf8" opacity=".55"/><circle cx="1817" cy="670" r="8" fill="#22c55e"/></g><path d="M850 370h220a70 70 0 0 1 0 140H850a70 70 0 0 1 0-140Z" fill="#fff" stroke="#93c5fd" stroke-width="8"/><circle cx="850" cy="440" r="115" fill="none" stroke="#38bdf8" stroke-width="28" opacity=".75"/><text x="96" y="140" font-family="Arial, Helvetica, sans-serif" font-size="58" font-weight="700" fill="#0f172a">Diagnostic Ultrasound System</text><text x="100" y="202" font-family="Arial, Helvetica, sans-serif" font-size="28" fill="#2563eb">Ultra HD enterprise technology artwork · SEN Systems</text><rect x="96" y="888" width="520" height="6" rx="3" fill="#38bdf8"/><rect x="96" y="918" width="360" height="6" rx="3" fill="#93c5fd"/></svg>