<svg xmlns="http://www.w3.org/2000/svg" viewBox="0 0 1920 1080" role="img" aria-labelledby="title desc"><title id="title">Enterprise Rack Servers</title><desc id="desc">Premium corporate blue technology illustration of Enterprise Rack Servers</desc><defs><linearGradient id="bg" x1="0" x2="1" y1="0" y2="1"><stop stop-color="#ffffff"/><stop offset=".55" stop-color="#eef7ff"/><stop offset="1" stop-color="#dbeafe"/></linearGradient><linearGradient id="metal" x1="0" x2="1"><stop stop-color="#0f172a"/><stop offset=".5" stop-color="#1e3a8a"/><stop offset="1" stop-color="#075985"/></linearGradient><filter id="glow"><feGaussianBlur stdDeviation="10" result="b"/><feMerge><feMergeNode in="b"/><feMergeNode in="SourceGraphic"/></feMerge></filter></defs><rect width="1920" height="1080" fill="url(#bg)"/><path d="M0 790C360 640 600 900 960 735s650-250 960-80v425H0Z" fill="#bfdbfe" opacity=".45"/><g opacity=".32"><circle cx="230" cy="141" r="5" fill="#0ea5e9"/><path d="M230 141 C 310 221, 400 81, 490 181" fill="none" stroke="#60a5fa" stroke-opacity=".28" stroke-width="3"/><circle cx="400" cy="238" r="5" fill="#0ea5e9"/><path d="M400 238 C 480 318, 570 178, 660 278" fill="none" stroke="#60a5fa" stroke-opacity=".28" stroke-width="3"/><circle cx="570" cy="335" r="5" fill="#0ea5e9"/><path d="M570 335 C 650 415, 740 275, 830 375" fill="none" stroke="#60a5fa" stroke-opacity=".28" stroke-width="3"/><circle cx="740" cy="192" r="5" fill="#0ea5e9"/><path d="M740 192 C 820 272, 910 132, 1000 232" fill="none" stroke="#60a5fa" stroke-opacity=".28" stroke-width="3"/><circle cx="910" cy="289" r="5" fill="#0ea5e9"/><path d="M910 289 C 990 369, 1080 229, 1170 329" fill="none" stroke="#60a5fa" stroke-opacity=".28" stroke-width="3"/><circle cx="1080" cy="146" r="5" fill="#0ea5e9"/><path d="M1080 146 C 1160 226, 1250 86, 1340 186" fill="none" stroke="#60a5fa" stroke-opacity=".28" stroke-width="3"/><circle cx="1250" cy="243" r="5" fill="#0ea5e9"/><path d="M1250 243 C 1330 323, 1420 183, 1510 283" fill="none" stroke="#60a5fa" stroke-opacity=".28" stroke-width="3"/><circle cx="1420" cy="340" r="5" fill="#0ea5e9"/><path d="M1420 340 C 1500 420, 1590 280, 1680 380" fill="none" stroke="#60a5fa" stroke-opacity=".28" stroke-width="3"/><circle cx="1590" cy="197" r="5" fill="#0ea5e9"/><path d="M1590 197 C 1670 277, 1760 137, 1850 237" fill="none" stroke="#60a5fa" stroke-opacity=".28" stroke-width="3"/><circle cx="260" cy="294" r="5" fill="#0ea5e9"/><path d="M260 294 C 340 374, 430 234, 520 334" fill="none" stroke="#60a5fa" stroke-opacity=".28" stroke-width="3"/></g><g filter="url(#glow)"><rect x="198" y="470" width="186" height="291" rx="18" fill="url(#metal)" stroke="#7dd3fc" stroke-opacity=".55"/><rect x="216" y="494" width="150" height="14" rx="7" fill="#38bdf8" opacity=".55"/><circle cx="356" cy="733" r="8" fill="#22c55e"/><rect x="448" y="420" width="203" height="322" rx="18" fill="url(#metal)" stroke="#7dd3fc" stroke-opacity=".55"/><rect x="466" y="444" width="167" height="14" rx="7" fill="#38bdf8" opacity=".55"/><circle cx="623" cy="714" r="8" fill="#22c55e"/><rect x="698" y="370" width="125" height="223" rx="18" fill="url(#metal)" stroke="#7dd3fc" stroke-opacity=".55"/><rect x="716" y="394" width="89" height="14" rx="7" fill="#38bdf8" opacity=".55"/><circle cx="795" cy="565" r="8" fill="#22c55e"/><rect x="948" y="470" width="142" height="254" rx="18" fill="url(#metal)" stroke="#7dd3fc" stroke-opacity=".55"/><rect x="966" y="494" width="106" height="14" rx="7" fill="#38bdf8" opacity=".55"/><circle cx="1062" cy="696" r="8" fill="#22c55e"/><rect x="1198" y="420" width="159" height="285" rx="18" fill="url(#metal)" stroke="#7dd3fc" stroke-opacity=".55"/><rect x="1216" y="444" width="123" height="14" rx="7" fill="#38bdf8" opacity=".55"/><circle cx="1329" cy="677" r="8" fill="#22c55e"/><rect x="1448" y="370" width="176" height="316" rx="18" fill="url(#metal)" stroke="#7dd3fc" stroke-opacity=".55"/><rect x="1466" y="394" width="140" height="14" rx="7" fill="#38bdf8" opacity=".55"/><circle cx="1596" cy="658" r="8" fill="#22c55e"/><rect x="1698" y="470" width="193" height="217" rx="18" fill="url(#metal)" stroke="#7dd3fc" stroke-opacity=".55"/><rect x="1716" y="494" width="157" height="14" rx="7" fill="#38bdf8" opacity=".55"/><circle cx="1863" cy="659" r="8" fill="#22c55e"/></g><rect x="760" y="250" width="400" height="360" rx="34" fill="#0f172a" stroke="#7dd3fc" stroke-width="8"/><g opacity=".9"><rect x="810" y="310" width="300" height="28" rx="14" fill="#38bdf8"/><rect x="810" y="380" width="300" height="28" rx="14" fill="#60a5fa"/><rect x="810" y="450" width="300" height="28" rx="14" fill="#38bdf8"/></g><text x="96" y="140" font-family="Arial, Helvetica, sans-serif" font-size="58" font-weight="700" fill="#0f172a">Enterprise Rack Servers</text><text x="100" y="202" font-family="Arial, Helvetica, sans-serif" font-size="28" fill="#2563eb">Ultra HD enterprise technology artwork · SEN Systems</text><rect x="96" y="888" width="520" height="6" rx="3" fill="#38bdf8"/><rect x="96" y="918" width="360" height="6" rx="3" fill="#93c5fd"/></svg>