<svg xmlns="http://www.w3.org/2000/svg" viewBox="0 0 1920 1080" role="img" aria-labelledby="title desc"><title id="title">Industrial UPS Inverter</title><desc id="desc">Premium corporate blue technology illustration of Industrial UPS Inverter</desc><defs><linearGradient id="bg" x1="0" x2="1" y1="0" y2="1"><stop stop-color="#ffffff"/><stop offset=".55" stop-color="#eef7ff"/><stop offset="1" stop-color="#dbeafe"/></linearGradient><linearGradient id="metal" x1="0" x2="1"><stop stop-color="#0f172a"/><stop offset=".5" stop-color="#1e3a8a"/><stop offset="1" stop-color="#075985"/></linearGradient><filter id="glow"><feGaussianBlur stdDeviation="10" result="b"/><feMerge><feMergeNode in="b"/><feMergeNode in="SourceGraphic"/></feMerge></filter></defs><rect width="1920" height="1080" fill="url(#bg)"/><path d="M0 790C360 640 600 900 960 735s650-250 960-80v425H0Z" fill="#bfdbfe" opacity=".45"/><g opacity=".32"><circle cx="230" cy="205" r="5" fill="#0ea5e9"/><path d="M230 205 C 310 285, 400 145, 490 245" fill="none" stroke="#60a5fa" stroke-opacity=".28" stroke-width="3"/><circle cx="400" cy="302" r="5" fill="#0ea5e9"/><path d="M400 302 C 480 382, 570 242, 660 342" fill="none" stroke="#60a5fa" stroke-opacity=".28" stroke-width="3"/><circle cx="570" cy="159" r="5" fill="#0ea5e9"/><path d="M570 159 C 650 239, 740 99, 830 199" fill="none" stroke="#60a5fa" stroke-opacity=".28" stroke-width="3"/><circle cx="740" cy="256" r="5" fill="#0ea5e9"/><path d="M740 256 C 820 336, 910 196, 1000 296" fill="none" stroke="#60a5fa" stroke-opacity=".28" stroke-width="3"/><circle cx="910" cy="353" r="5" fill="#0ea5e9"/><path d="M910 353 C 990 433, 1080 293, 1170 393" fill="none" stroke="#60a5fa" stroke-opacity=".28" stroke-width="3"/><circle cx="1080" cy="210" r="5" fill="#0ea5e9"/><path d="M1080 210 C 1160 290, 1250 150, 1340 250" fill="none" stroke="#60a5fa" stroke-opacity=".28" stroke-width="3"/><circle cx="1250" cy="307" r="5" fill="#0ea5e9"/><path d="M1250 307 C 1330 387, 1420 247, 1510 347" fill="none" stroke="#60a5fa" stroke-opacity=".28" stroke-width="3"/><circle cx="1420" cy="164" r="5" fill="#0ea5e9"/><path d="M1420 164 C 1500 244, 1590 104, 1680 204" fill="none" stroke="#60a5fa" stroke-opacity=".28" stroke-width="3"/><circle cx="1590" cy="261" r="5" fill="#0ea5e9"/><path d="M1590 261 C 1670 341, 1760 201, 1850 301" fill="none" stroke="#60a5fa" stroke-opacity=".28" stroke-width="3"/><circle cx="260" cy="358" r="5" fill="#0ea5e9"/><path d="M260 358 C 340 438, 430 298, 520 398" fill="none" stroke="#60a5fa" stroke-opacity=".28" stroke-width="3"/></g><g filter="url(#glow)"><rect x="196" y="470" width="150" height="265" rx="18" fill="url(#metal)" stroke="#7dd3fc" stroke-opacity=".55"/><rect x="214" y="494" width="114" height="14" rx="7" fill="#38bdf8" opacity=".55"/><circle cx="318" cy="707" r="8" fill="#22c55e"/><rect x="446" y="420" width="167" height="296" rx="18" fill="url(#metal)" stroke="#7dd3fc" stroke-opacity=".55"/><rect x="464" y="444" width="131" height="14" rx="7" fill="#38bdf8" opacity=".55"/><circle cx="585" cy="688" r="8" fill="#22c55e"/><rect x="696" y="370" width="184" height="327" rx="18" fill="url(#metal)" stroke="#7dd3fc" stroke-opacity=".55"/><rect x="714" y="394" width="148" height="14" rx="7" fill="#38bdf8" opacity=".55"/><circle cx="852" cy="669" r="8" fill="#22c55e"/><rect x="946" y="470" width="201" height="228" rx="18" fill="url(#metal)" stroke="#7dd3fc" stroke-opacity=".55"/><rect x="964" y="494" width="165" height="14" rx="7" fill="#38bdf8" opacity=".55"/><circle cx="1119" cy="670" r="8" fill="#22c55e"/><rect x="1196" y="420" width="123" height="259" rx="18" fill="url(#metal)" stroke="#7dd3fc" stroke-opacity=".55"/><rect x="1214" y="444" width="87" height="14" rx="7" fill="#38bdf8" opacity=".55"/><circle cx="1291" cy="651" r="8" fill="#22c55e"/><rect x="1446" y="370" width="140" height="290" rx="18" fill="url(#metal)" stroke="#7dd3fc" stroke-opacity=".55"/><rect x="1464" y="394" width="104" height="14" rx="7" fill="#38bdf8" opacity=".55"/><circle cx="1558" cy="632" r="8" fill="#22c55e"/><rect x="1696" y="470" width="157" height="321" rx="18" fill="url(#metal)" stroke="#7dd3fc" stroke-opacity=".55"/><rect x="1714" y="494" width="121" height="14" rx="7" fill="#38bdf8" opacity=".55"/><circle cx="1825" cy="763" r="8" fill="#22c55e"/></g><rect x="760" y="250" width="400" height="360" rx="34" fill="#0f172a" stroke="#7dd3fc" stroke-width="8"/><g opacity=".9"><rect x="810" y="310" width="300" height="28" rx="14" fill="#38bdf8"/><rect x="810" y="380" width="300" height="28" rx="14" fill="#60a5fa"/><rect x="810" y="450" width="300" height="28" rx="14" fill="#38bdf8"/></g><text x="96" y="140" font-family="Arial, Helvetica, sans-serif" font-size="58" font-weight="700" fill="#0f172a">Industrial UPS Inverter</text><text x="100" y="202" font-family="Arial, Helvetica, sans-serif" font-size="28" fill="#2563eb">Ultra HD enterprise technology artwork · SEN Systems</text><rect x="96" y="888" width="520" height="6" rx="3" fill="#38bdf8"/><rect x="96" y="918" width="360" height="6" rx="3" fill="#93c5fd"/></svg>