<svg xmlns="http://www.w3.org/2000/svg" width="980" height="760" viewBox="0 0 980 760" role="img" aria-labelledby="title desc">
  <title id="title">SEN — Shenzhen Energy &amp; Networks</title>
  <desc id="desc">Official SEN brand mark for Shenzhen Energy and Networks.</desc>
  <rect width="980" height="760" fill="#fff"/>
  <path d="M395 130C225 198 111 371 135 537c19 132 112 230 251 264-118-58-183-163-174-286 12-166 129-313 294-376" fill="none" stroke="#38bdf8" stroke-width="34" stroke-linecap="round"/>
  <path d="M731 268C586 198 393 232 288 357c-101 120-101 292 6 401-60-124-39-259 59-367 98-108 260-151 378-123" fill="none" stroke="#38bdf8" stroke-width="28" stroke-linecap="round"/>
  <text x="322" y="445" font-family="Arial Black, Arial, Helvetica, sans-serif" font-size="176" font-weight="900" letter-spacing="4"><tspan fill="#31106f">S</tspan><tspan fill="#38bdf8">E</tspan><tspan fill="#31106f">N</tspan></text>
  <text x="445" y="525" font-family="Arial, Helvetica, sans-serif" font-size="52" font-weight="800"><tspan fill="#31106f">Shenzhen </tspan><tspan fill="#38bdf8">Energy</tspan></text>
  <text x="494" y="612" font-family="Arial, Helvetica, sans-serif" font-size="58" font-weight="900" fill="#31106f">And Networks</text>
</svg>
