<svg xmlns="http://www.w3.org/2000/svg" viewBox="0 0 1920 1080" role="img" aria-labelledby="title desc"><title id="title">CT Scanner</title><desc id="desc">Premium corporate blue technology illustration of CT Scanner</desc><defs><linearGradient id="bg" x1="0" x2="1" y1="0" y2="1"><stop stop-color="#ffffff"/><stop offset=".55" stop-color="#eef7ff"/><stop offset="1" stop-color="#dbeafe"/></linearGradient><linearGradient id="metal" x1="0" x2="1"><stop stop-color="#0f172a"/><stop offset=".5" stop-color="#1e3a8a"/><stop offset="1" stop-color="#075985"/></linearGradient><filter id="glow"><feGaussianBlur stdDeviation="10" result="b"/><feMerge><feMergeNode in="b"/><feMergeNode in="SourceGraphic"/></feMerge></filter></defs><rect width="1920" height="1080" fill="url(#bg)"/><path d="M0 790C360 640 600 900 960 735s650-250 960-80v425H0Z" fill="#bfdbfe" opacity=".45"/><g opacity=".32"><circle cx="230" cy="145" r="5" fill="#0ea5e9"/><path d="M230 145 C 310 225, 400 85, 490 185" fill="none" stroke="#60a5fa" stroke-opacity=".28" stroke-width="3"/><circle cx="400" cy="242" r="5" fill="#0ea5e9"/><path d="M400 242 C 480 322, 570 182, 660 282" fill="none" stroke="#60a5fa" stroke-opacity=".28" stroke-width="3"/><circle cx="570" cy="339" r="5" fill="#0ea5e9"/><path d="M570 339 C 650 419, 740 279, 830 379" fill="none" stroke="#60a5fa" stroke-opacity=".28" stroke-width="3"/><circle cx="740" cy="196" r="5" fill="#0ea5e9"/><path d="M740 196 C 820 276, 910 136, 1000 236" fill="none" stroke="#60a5fa" stroke-opacity=".28" stroke-width="3"/><circle cx="910" cy="293" r="5" fill="#0ea5e9"/><path d="M910 293 C 990 373, 1080 233, 1170 333" fill="none" stroke="#60a5fa" stroke-opacity=".28" stroke-width="3"/><circle cx="1080" cy="150" r="5" fill="#0ea5e9"/><path d="M1080 150 C 1160 230, 1250 90, 1340 190" fill="none" stroke="#60a5fa" stroke-opacity=".28" stroke-width="3"/><circle cx="1250" cy="247" r="5" fill="#0ea5e9"/><path d="M1250 247 C 1330 327, 1420 187, 1510 287" fill="none" stroke="#60a5fa" stroke-opacity=".28" stroke-width="3"/><circle cx="1420" cy="344" r="5" fill="#0ea5e9"/><path d="M1420 344 C 1500 424, 1590 284, 1680 384" fill="none" stroke="#60a5fa" stroke-opacity=".28" stroke-width="3"/><circle cx="1590" cy="201" r="5" fill="#0ea5e9"/><path d="M1590 201 C 1670 281, 1760 141, 1850 241" fill="none" stroke="#60a5fa" stroke-opacity=".28" stroke-width="3"/><circle cx="260" cy="298" r="5" fill="#0ea5e9"/><path d="M260 298 C 340 378, 430 238, 520 338" fill="none" stroke="#60a5fa" stroke-opacity=".28" stroke-width="3"/></g><g filter="url(#glow)"><rect x="182" y="470" width="185" height="335" rx="18" fill="url(#metal)" stroke="#7dd3fc" stroke-opacity=".55"/><rect x="200" y="494" width="149" height="14" rx="7" fill="#38bdf8" opacity=".55"/><circle cx="339" cy="777" r="8" fill="#22c55e"/><rect x="432" y="420" width="202" height="236" rx="18" fill="url(#metal)" stroke="#7dd3fc" stroke-opacity=".55"/><rect x="450" y="444" width="166" height="14" rx="7" fill="#38bdf8" opacity=".55"/><circle cx="606" cy="628" r="8" fill="#22c55e"/><rect x="682" y="370" width="124" height="267" rx="18" fill="url(#metal)" stroke="#7dd3fc" stroke-opacity=".55"/><rect x="700" y="394" width="88" height="14" rx="7" fill="#38bdf8" opacity=".55"/><circle cx="778" cy="609" r="8" fill="#22c55e"/><rect x="932" y="470" width="141" height="298" rx="18" fill="url(#metal)" stroke="#7dd3fc" stroke-opacity=".55"/><rect x="950" y="494" width="105" height="14" rx="7" fill="#38bdf8" opacity=".55"/><circle cx="1045" cy="740" r="8" fill="#22c55e"/><rect x="1182" y="420" width="158" height="329" rx="18" fill="url(#metal)" stroke="#7dd3fc" stroke-opacity=".55"/><rect x="1200" y="444" width="122" height="14" rx="7" fill="#38bdf8" opacity=".55"/><circle cx="1312" cy="721" r="8" fill="#22c55e"/><rect x="1432" y="370" width="175" height="230" rx="18" fill="url(#metal)" stroke="#7dd3fc" stroke-opacity=".55"/><rect x="1450" y="394" width="139" height="14" rx="7" fill="#38bdf8" opacity=".55"/><circle cx="1579" cy="572" r="8" fill="#22c55e"/><rect x="1682" y="470" width="192" height="261" rx="18" fill="url(#metal)" stroke="#7dd3fc" stroke-opacity=".55"/><rect x="1700" y="494" width="156" height="14" rx="7" fill="#38bdf8" opacity=".55"/><circle cx="1846" cy="703" r="8" fill="#22c55e"/></g><path d="M850 370h220a70 70 0 0 1 0 140H850a70 70 0 0 1 0-140Z" fill="#fff" stroke="#93c5fd" stroke-width="8"/><circle cx="850" cy="440" r="115" fill="none" stroke="#38bdf8" stroke-width="28" opacity=".75"/><text x="96" y="140" font-family="Arial, Helvetica, sans-serif" font-size="58" font-weight="700" fill="#0f172a">CT Scanner</text><text x="100" y="202" font-family="Arial, Helvetica, sans-serif" font-size="28" fill="#2563eb">Ultra HD enterprise technology artwork · SEN Systems</text><rect x="96" y="888" width="520" height="6" rx="3" fill="#38bdf8"/><rect x="96" y="918" width="360" height="6" rx="3" fill="#93c5fd"/></svg>