<svg xmlns="http://www.w3.org/2000/svg" viewBox="0 0 1920 1080" role="img" aria-labelledby="title desc"><title id="title">Medical Ultrasound Machine</title><desc id="desc">Premium corporate blue technology illustration of Medical Ultrasound Machine</desc><defs><linearGradient id="bg" x1="0" x2="1" y1="0" y2="1"><stop stop-color="#ffffff"/><stop offset=".55" stop-color="#eef7ff"/><stop offset="1" stop-color="#dbeafe"/></linearGradient><linearGradient id="metal" x1="0" x2="1"><stop stop-color="#0f172a"/><stop offset=".5" stop-color="#1e3a8a"/><stop offset="1" stop-color="#075985"/></linearGradient><filter id="glow"><feGaussianBlur stdDeviation="10" result="b"/><feMerge><feMergeNode in="b"/><feMergeNode in="SourceGraphic"/></feMerge></filter></defs><rect width="1920" height="1080" fill="url(#bg)"/><path d="M0 790C360 640 600 900 960 735s650-250 960-80v425H0Z" fill="#bfdbfe" opacity=".45"/><g opacity=".32"><circle cx="230" cy="336" r="5" fill="#0ea5e9"/><path d="M230 336 C 310 416, 400 276, 490 376" fill="none" stroke="#60a5fa" stroke-opacity=".28" stroke-width="3"/><circle cx="400" cy="193" r="5" fill="#0ea5e9"/><path d="M400 193 C 480 273, 570 133, 660 233" fill="none" stroke="#60a5fa" stroke-opacity=".28" stroke-width="3"/><circle cx="570" cy="290" r="5" fill="#0ea5e9"/><path d="M570 290 C 650 370, 740 230, 830 330" fill="none" stroke="#60a5fa" stroke-opacity=".28" stroke-width="3"/><circle cx="740" cy="147" r="5" fill="#0ea5e9"/><path d="M740 147 C 820 227, 910 87, 1000 187" fill="none" stroke="#60a5fa" stroke-opacity=".28" stroke-width="3"/><circle cx="910" cy="244" r="5" fill="#0ea5e9"/><path d="M910 244 C 990 324, 1080 184, 1170 284" fill="none" stroke="#60a5fa" stroke-opacity=".28" stroke-width="3"/><circle cx="1080" cy="341" r="5" fill="#0ea5e9"/><path d="M1080 341 C 1160 421, 1250 281, 1340 381" fill="none" stroke="#60a5fa" stroke-opacity=".28" stroke-width="3"/><circle cx="1250" cy="198" r="5" fill="#0ea5e9"/><path d="M1250 198 C 1330 278, 1420 138, 1510 238" fill="none" stroke="#60a5fa" stroke-opacity=".28" stroke-width="3"/><circle cx="1420" cy="295" r="5" fill="#0ea5e9"/><path d="M1420 295 C 1500 375, 1590 235, 1680 335" fill="none" stroke="#60a5fa" stroke-opacity=".28" stroke-width="3"/><circle cx="1590" cy="152" r="5" fill="#0ea5e9"/><path d="M1590 152 C 1670 232, 1760 92, 1850 192" fill="none" stroke="#60a5fa" stroke-opacity=".28" stroke-width="3"/><circle cx="260" cy="249" r="5" fill="#0ea5e9"/><path d="M260 249 C 340 329, 430 189, 520 289" fill="none" stroke="#60a5fa" stroke-opacity=".28" stroke-width="3"/></g><g filter="url(#glow)"><rect x="199" y="470" width="141" height="246" rx="18" fill="url(#metal)" stroke="#7dd3fc" stroke-opacity=".55"/><rect x="217" y="494" width="105" height="14" rx="7" fill="#38bdf8" opacity=".55"/><circle cx="312" cy="688" r="8" fill="#22c55e"/><rect x="449" y="420" width="158" height="277" rx="18" fill="url(#metal)" stroke="#7dd3fc" stroke-opacity=".55"/><rect x="467" y="444" width="122" height="14" rx="7" fill="#38bdf8" opacity=".55"/><circle cx="579" cy="669" r="8" fill="#22c55e"/><rect x="699" y="370" width="175" height="308" rx="18" fill="url(#metal)" stroke="#7dd3fc" stroke-opacity=".55"/><rect x="717" y="394" width="139" height="14" rx="7" fill="#38bdf8" opacity=".55"/><circle cx="846" cy="650" r="8" fill="#22c55e"/><rect x="949" y="470" width="192" height="339" rx="18" fill="url(#metal)" stroke="#7dd3fc" stroke-opacity=".55"/><rect x="967" y="494" width="156" height="14" rx="7" fill="#38bdf8" opacity=".55"/><circle cx="1113" cy="781" r="8" fill="#22c55e"/><rect x="1199" y="420" width="209" height="240" rx="18" fill="url(#metal)" stroke="#7dd3fc" stroke-opacity=".55"/><rect x="1217" y="444" width="173" height="14" rx="7" fill="#38bdf8" opacity=".55"/><circle cx="1380" cy="632" r="8" fill="#22c55e"/><rect x="1449" y="370" width="131" height="271" rx="18" fill="url(#metal)" stroke="#7dd3fc" stroke-opacity=".55"/><rect x="1467" y="394" width="95" height="14" rx="7" fill="#38bdf8" opacity=".55"/><circle cx="1552" cy="613" r="8" fill="#22c55e"/><rect x="1699" y="470" width="148" height="302" rx="18" fill="url(#metal)" stroke="#7dd3fc" stroke-opacity=".55"/><rect x="1717" y="494" width="112" height="14" rx="7" fill="#38bdf8" opacity=".55"/><circle cx="1819" cy="744" r="8" fill="#22c55e"/></g><path d="M850 370h220a70 70 0 0 1 0 140H850a70 70 0 0 1 0-140Z" fill="#fff" stroke="#93c5fd" stroke-width="8"/><circle cx="850" cy="440" r="115" fill="none" stroke="#38bdf8" stroke-width="28" opacity=".75"/><text x="96" y="140" font-family="Arial, Helvetica, sans-serif" font-size="58" font-weight="700" fill="#0f172a">Medical Ultrasound Machine</text><text x="100" y="202" font-family="Arial, Helvetica, sans-serif" font-size="28" fill="#2563eb">Ultra HD enterprise technology artwork · SEN Systems</text><rect x="96" y="888" width="520" height="6" rx="3" fill="#38bdf8"/><rect x="96" y="918" width="360" height="6" rx="3" fill="#93c5fd"/></svg>