<svg xmlns="http://www.w3.org/2000/svg" viewBox="0 0 1920 1080" role="img" aria-labelledby="title desc"><title id="title">MRI Machine</title><desc id="desc">Premium corporate blue technology illustration of MRI Machine</desc><defs><linearGradient id="bg" x1="0" x2="1" y1="0" y2="1"><stop stop-color="#ffffff"/><stop offset=".55" stop-color="#eef7ff"/><stop offset="1" stop-color="#dbeafe"/></linearGradient><linearGradient id="metal" x1="0" x2="1"><stop stop-color="#0f172a"/><stop offset=".5" stop-color="#1e3a8a"/><stop offset="1" stop-color="#075985"/></linearGradient><filter id="glow"><feGaussianBlur stdDeviation="10" result="b"/><feMerge><feMergeNode in="b"/><feMergeNode in="SourceGraphic"/></feMerge></filter></defs><rect width="1920" height="1080" fill="url(#bg)"/><path d="M0 790C360 640 600 900 960 735s650-250 960-80v425H0Z" fill="#bfdbfe" opacity=".45"/><g opacity=".32"><circle cx="230" cy="180" r="5" fill="#0ea5e9"/><path d="M230 180 C 310 260, 400 120, 490 220" fill="none" stroke="#60a5fa" stroke-opacity=".28" stroke-width="3"/><circle cx="400" cy="277" r="5" fill="#0ea5e9"/><path d="M400 277 C 480 357, 570 217, 660 317" fill="none" stroke="#60a5fa" stroke-opacity=".28" stroke-width="3"/><circle cx="570" cy="134" r="5" fill="#0ea5e9"/><path d="M570 134 C 650 214, 740 74, 830 174" fill="none" stroke="#60a5fa" stroke-opacity=".28" stroke-width="3"/><circle cx="740" cy="231" r="5" fill="#0ea5e9"/><path d="M740 231 C 820 311, 910 171, 1000 271" fill="none" stroke="#60a5fa" stroke-opacity=".28" stroke-width="3"/><circle cx="910" cy="328" r="5" fill="#0ea5e9"/><path d="M910 328 C 990 408, 1080 268, 1170 368" fill="none" stroke="#60a5fa" stroke-opacity=".28" stroke-width="3"/><circle cx="1080" cy="185" r="5" fill="#0ea5e9"/><path d="M1080 185 C 1160 265, 1250 125, 1340 225" fill="none" stroke="#60a5fa" stroke-opacity=".28" stroke-width="3"/><circle cx="1250" cy="282" r="5" fill="#0ea5e9"/><path d="M1250 282 C 1330 362, 1420 222, 1510 322" fill="none" stroke="#60a5fa" stroke-opacity=".28" stroke-width="3"/><circle cx="1420" cy="139" r="5" fill="#0ea5e9"/><path d="M1420 139 C 1500 219, 1590 79, 1680 179" fill="none" stroke="#60a5fa" stroke-opacity=".28" stroke-width="3"/><circle cx="1590" cy="236" r="5" fill="#0ea5e9"/><path d="M1590 236 C 1670 316, 1760 176, 1850 276" fill="none" stroke="#60a5fa" stroke-opacity=".28" stroke-width="3"/><circle cx="260" cy="333" r="5" fill="#0ea5e9"/><path d="M260 333 C 340 413, 430 273, 520 373" fill="none" stroke="#60a5fa" stroke-opacity=".28" stroke-width="3"/></g><g filter="url(#glow)"><rect x="194" y="470" width="125" height="240" rx="18" fill="url(#metal)" stroke="#7dd3fc" stroke-opacity=".55"/><rect x="212" y="494" width="89" height="14" rx="7" fill="#38bdf8" opacity=".55"/><circle cx="291" cy="682" r="8" fill="#22c55e"/><rect x="444" y="420" width="142" height="271" rx="18" fill="url(#metal)" stroke="#7dd3fc" stroke-opacity=".55"/><rect x="462" y="444" width="106" height="14" rx="7" fill="#38bdf8" opacity=".55"/><circle cx="558" cy="663" r="8" fill="#22c55e"/><rect x="694" y="370" width="159" height="302" rx="18" fill="url(#metal)" stroke="#7dd3fc" stroke-opacity=".55"/><rect x="712" y="394" width="123" height="14" rx="7" fill="#38bdf8" opacity=".55"/><circle cx="825" cy="644" r="8" fill="#22c55e"/><rect x="944" y="470" width="176" height="333" rx="18" fill="url(#metal)" stroke="#7dd3fc" stroke-opacity=".55"/><rect x="962" y="494" width="140" height="14" rx="7" fill="#38bdf8" opacity=".55"/><circle cx="1092" cy="775" r="8" fill="#22c55e"/><rect x="1194" y="420" width="193" height="234" rx="18" fill="url(#metal)" stroke="#7dd3fc" stroke-opacity=".55"/><rect x="1212" y="444" width="157" height="14" rx="7" fill="#38bdf8" opacity=".55"/><circle cx="1359" cy="626" r="8" fill="#22c55e"/><rect x="1444" y="370" width="210" height="265" rx="18" fill="url(#metal)" stroke="#7dd3fc" stroke-opacity=".55"/><rect x="1462" y="394" width="174" height="14" rx="7" fill="#38bdf8" opacity=".55"/><circle cx="1626" cy="607" r="8" fill="#22c55e"/><rect x="1694" y="470" width="132" height="296" rx="18" fill="url(#metal)" stroke="#7dd3fc" stroke-opacity=".55"/><rect x="1712" y="494" width="96" height="14" rx="7" fill="#38bdf8" opacity=".55"/><circle cx="1798" cy="738" r="8" fill="#22c55e"/></g><path d="M850 370h220a70 70 0 0 1 0 140H850a70 70 0 0 1 0-140Z" fill="#fff" stroke="#93c5fd" stroke-width="8"/><circle cx="850" cy="440" r="115" fill="none" stroke="#38bdf8" stroke-width="28" opacity=".75"/><text x="96" y="140" font-family="Arial, Helvetica, sans-serif" font-size="58" font-weight="700" fill="#0f172a">MRI Machine</text><text x="100" y="202" font-family="Arial, Helvetica, sans-serif" font-size="28" fill="#2563eb">Ultra HD enterprise technology artwork · SEN Systems</text><rect x="96" y="888" width="520" height="6" rx="3" fill="#38bdf8"/><rect x="96" y="918" width="360" height="6" rx="3" fill="#93c5fd"/></svg>