<svg xmlns="http://www.w3.org/2000/svg" viewBox="0 0 1920 1080" role="img" aria-labelledby="title desc"><title id="title">Patient Monitor</title><desc id="desc">Premium corporate blue technology illustration of Patient Monitor</desc><defs><linearGradient id="bg" x1="0" x2="1" y1="0" y2="1"><stop stop-color="#ffffff"/><stop offset=".55" stop-color="#eef7ff"/><stop offset="1" stop-color="#dbeafe"/></linearGradient><linearGradient id="metal" x1="0" x2="1"><stop stop-color="#0f172a"/><stop offset=".5" stop-color="#1e3a8a"/><stop offset="1" stop-color="#075985"/></linearGradient><filter id="glow"><feGaussianBlur stdDeviation="10" result="b"/><feMerge><feMergeNode in="b"/><feMergeNode in="SourceGraphic"/></feMerge></filter></defs><rect width="1920" height="1080" fill="url(#bg)"/><path d="M0 790C360 640 600 900 960 735s650-250 960-80v425H0Z" fill="#bfdbfe" opacity=".45"/><g opacity=".32"><circle cx="230" cy="146" r="5" fill="#0ea5e9"/><path d="M230 146 C 310 226, 400 86, 490 186" fill="none" stroke="#60a5fa" stroke-opacity=".28" stroke-width="3"/><circle cx="400" cy="243" r="5" fill="#0ea5e9"/><path d="M400 243 C 480 323, 570 183, 660 283" fill="none" stroke="#60a5fa" stroke-opacity=".28" stroke-width="3"/><circle cx="570" cy="340" r="5" fill="#0ea5e9"/><path d="M570 340 C 650 420, 740 280, 830 380" fill="none" stroke="#60a5fa" stroke-opacity=".28" stroke-width="3"/><circle cx="740" cy="197" r="5" fill="#0ea5e9"/><path d="M740 197 C 820 277, 910 137, 1000 237" fill="none" stroke="#60a5fa" stroke-opacity=".28" stroke-width="3"/><circle cx="910" cy="294" r="5" fill="#0ea5e9"/><path d="M910 294 C 990 374, 1080 234, 1170 334" fill="none" stroke="#60a5fa" stroke-opacity=".28" stroke-width="3"/><circle cx="1080" cy="151" r="5" fill="#0ea5e9"/><path d="M1080 151 C 1160 231, 1250 91, 1340 191" fill="none" stroke="#60a5fa" stroke-opacity=".28" stroke-width="3"/><circle cx="1250" cy="248" r="5" fill="#0ea5e9"/><path d="M1250 248 C 1330 328, 1420 188, 1510 288" fill="none" stroke="#60a5fa" stroke-opacity=".28" stroke-width="3"/><circle cx="1420" cy="345" r="5" fill="#0ea5e9"/><path d="M1420 345 C 1500 425, 1590 285, 1680 385" fill="none" stroke="#60a5fa" stroke-opacity=".28" stroke-width="3"/><circle cx="1590" cy="202" r="5" fill="#0ea5e9"/><path d="M1590 202 C 1670 282, 1760 142, 1850 242" fill="none" stroke="#60a5fa" stroke-opacity=".28" stroke-width="3"/><circle cx="260" cy="299" r="5" fill="#0ea5e9"/><path d="M260 299 C 340 379, 430 239, 520 339" fill="none" stroke="#60a5fa" stroke-opacity=".28" stroke-width="3"/></g><g filter="url(#glow)"><rect x="183" y="470" width="186" height="336" rx="18" fill="url(#metal)" stroke="#7dd3fc" stroke-opacity=".55"/><rect x="201" y="494" width="150" height="14" rx="7" fill="#38bdf8" opacity=".55"/><circle cx="341" cy="778" r="8" fill="#22c55e"/><rect x="433" y="420" width="203" height="237" rx="18" fill="url(#metal)" stroke="#7dd3fc" stroke-opacity=".55"/><rect x="451" y="444" width="167" height="14" rx="7" fill="#38bdf8" opacity=".55"/><circle cx="608" cy="629" r="8" fill="#22c55e"/><rect x="683" y="370" width="125" height="268" rx="18" fill="url(#metal)" stroke="#7dd3fc" stroke-opacity=".55"/><rect x="701" y="394" width="89" height="14" rx="7" fill="#38bdf8" opacity=".55"/><circle cx="780" cy="610" r="8" fill="#22c55e"/><rect x="933" y="470" width="142" height="299" rx="18" fill="url(#metal)" stroke="#7dd3fc" stroke-opacity=".55"/><rect x="951" y="494" width="106" height="14" rx="7" fill="#38bdf8" opacity=".55"/><circle cx="1047" cy="741" r="8" fill="#22c55e"/><rect x="1183" y="420" width="159" height="330" rx="18" fill="url(#metal)" stroke="#7dd3fc" stroke-opacity=".55"/><rect x="1201" y="444" width="123" height="14" rx="7" fill="#38bdf8" opacity=".55"/><circle cx="1314" cy="722" r="8" fill="#22c55e"/><rect x="1433" y="370" width="176" height="231" rx="18" fill="url(#metal)" stroke="#7dd3fc" stroke-opacity=".55"/><rect x="1451" y="394" width="140" height="14" rx="7" fill="#38bdf8" opacity=".55"/><circle cx="1581" cy="573" r="8" fill="#22c55e"/><rect x="1683" y="470" width="193" height="262" rx="18" fill="url(#metal)" stroke="#7dd3fc" stroke-opacity=".55"/><rect x="1701" y="494" width="157" height="14" rx="7" fill="#38bdf8" opacity=".55"/><circle cx="1848" cy="704" r="8" fill="#22c55e"/></g><path d="M850 370h220a70 70 0 0 1 0 140H850a70 70 0 0 1 0-140Z" fill="#fff" stroke="#93c5fd" stroke-width="8"/><circle cx="850" cy="440" r="115" fill="none" stroke="#38bdf8" stroke-width="28" opacity=".75"/><text x="96" y="140" font-family="Arial, Helvetica, sans-serif" font-size="58" font-weight="700" fill="#0f172a">Patient Monitor</text><text x="100" y="202" font-family="Arial, Helvetica, sans-serif" font-size="28" fill="#2563eb">Ultra HD enterprise technology artwork · SEN Systems</text><rect x="96" y="888" width="520" height="6" rx="3" fill="#38bdf8"/><rect x="96" y="918" width="360" height="6" rx="3" fill="#93c5fd"/></svg>