<svg xmlns="http://www.w3.org/2000/svg" width="1600" height="1000" viewBox="0 0 1600 1000" role="img"><defs><linearGradient id="g" x1="0" x2="1" y1="0" y2="1"><stop stop-color="#07111f"/><stop offset=".55" stop-color="#12345a"/><stop offset="1" stop-color="#0f766e"/></linearGradient><pattern id="p" width="80" height="80" patternUnits="userSpaceOnUse"><path d="M80 0H0v80" fill="none" stroke="#ffffff" stroke-opacity=".08"/></pattern></defs><rect width="1600" height="1000" fill="url(#g)"/><rect width="1600" height="1000" fill="url(#p)"/><g fill="none" stroke="#7dd3fc" stroke-opacity=".55" stroke-width="4"><path d="M160 730C410 520 560 620 790 405s440-130 640-260"/><path d="M180 820h1240"/><path d="M260 220h1080"/></g><g fill="#e0f2fe" fill-opacity=".9"><rect x="280" y="300" width="230" height="390" rx="18"/><rect x="550" y="260" width="210" height="430" rx="18" fill-opacity=".75"/><rect x="810" y="330" width="310" height="270" rx="22" fill-opacity=".65"/><rect x="1170" y="250" width="130" height="440" rx="16" fill-opacity=".55"/></g><g fill="#0f172a" opacity=".75"><rect x="315" y="350" width="160" height="18" rx="9"/><rect x="315" y="405" width="160" height="18" rx="9"/><rect x="315" y="460" width="160" height="18" rx="9"/><rect x="585" y="330" width="140" height="16" rx="8"/><rect x="585" y="390" width="140" height="16" rx="8"/><circle cx="910" cy="440" r="52"/><circle cx="1010" cy="440" r="52"/></g><text x="120" y="910" font-family="Arial" font-size="42" font-weight="700" fill="#fff" fill-opacity=".82">SEN enterprise technology visual</text></svg>
