<svg xmlns="http://www.w3.org/2000/svg" viewBox="0 0 1920 1080" role="img" aria-labelledby="title desc"><title id="title">Data Center</title><desc id="desc">Premium corporate blue technology illustration of Data Center</desc><defs><linearGradient id="bg" x1="0" x2="1" y1="0" y2="1"><stop stop-color="#ffffff"/><stop offset=".55" stop-color="#eef7ff"/><stop offset="1" stop-color="#dbeafe"/></linearGradient><linearGradient id="metal" x1="0" x2="1"><stop stop-color="#0f172a"/><stop offset=".5" stop-color="#1e3a8a"/><stop offset="1" stop-color="#075985"/></linearGradient><filter id="glow"><feGaussianBlur stdDeviation="10" result="b"/><feMerge><feMergeNode in="b"/><feMergeNode in="SourceGraphic"/></feMerge></filter></defs><rect width="1920" height="1080" fill="url(#bg)"/><path d="M0 790C360 640 600 900 960 735s650-250 960-80v425H0Z" fill="#bfdbfe" opacity=".45"/><g opacity=".32"><circle cx="230" cy="317" r="5" fill="#0ea5e9"/><path d="M230 317 C 310 397, 400 257, 490 357" fill="none" stroke="#60a5fa" stroke-opacity=".28" stroke-width="3"/><circle cx="400" cy="174" r="5" fill="#0ea5e9"/><path d="M400 174 C 480 254, 570 114, 660 214" fill="none" stroke="#60a5fa" stroke-opacity=".28" stroke-width="3"/><circle cx="570" cy="271" r="5" fill="#0ea5e9"/><path d="M570 271 C 650 351, 740 211, 830 311" fill="none" stroke="#60a5fa" stroke-opacity=".28" stroke-width="3"/><circle cx="740" cy="368" r="5" fill="#0ea5e9"/><path d="M740 368 C 820 448, 910 308, 1000 408" fill="none" stroke="#60a5fa" stroke-opacity=".28" stroke-width="3"/><circle cx="910" cy="225" r="5" fill="#0ea5e9"/><path d="M910 225 C 990 305, 1080 165, 1170 265" fill="none" stroke="#60a5fa" stroke-opacity=".28" stroke-width="3"/><circle cx="1080" cy="322" r="5" fill="#0ea5e9"/><path d="M1080 322 C 1160 402, 1250 262, 1340 362" fill="none" stroke="#60a5fa" stroke-opacity=".28" stroke-width="3"/><circle cx="1250" cy="179" r="5" fill="#0ea5e9"/><path d="M1250 179 C 1330 259, 1420 119, 1510 219" fill="none" stroke="#60a5fa" stroke-opacity=".28" stroke-width="3"/><circle cx="1420" cy="276" r="5" fill="#0ea5e9"/><path d="M1420 276 C 1500 356, 1590 216, 1680 316" fill="none" stroke="#60a5fa" stroke-opacity=".28" stroke-width="3"/><circle cx="1590" cy="133" r="5" fill="#0ea5e9"/><path d="M1590 133 C 1670 213, 1760 73, 1850 173" fill="none" stroke="#60a5fa" stroke-opacity=".28" stroke-width="3"/><circle cx="260" cy="230" r="5" fill="#0ea5e9"/><path d="M260 230 C 340 310, 430 170, 520 270" fill="none" stroke="#60a5fa" stroke-opacity=".28" stroke-width="3"/></g><g filter="url(#glow)"><rect x="183" y="470" width="212" height="267" rx="18" fill="url(#metal)" stroke="#7dd3fc" stroke-opacity=".55"/><rect x="201" y="494" width="176" height="14" rx="7" fill="#38bdf8" opacity=".55"/><circle cx="367" cy="709" r="8" fill="#22c55e"/><rect x="433" y="420" width="134" height="298" rx="18" fill="url(#metal)" stroke="#7dd3fc" stroke-opacity=".55"/><rect x="451" y="444" width="98" height="14" rx="7" fill="#38bdf8" opacity=".55"/><circle cx="539" cy="690" r="8" fill="#22c55e"/><rect x="683" y="370" width="151" height="329" rx="18" fill="url(#metal)" stroke="#7dd3fc" stroke-opacity=".55"/><rect x="701" y="394" width="115" height="14" rx="7" fill="#38bdf8" opacity=".55"/><circle cx="806" cy="671" r="8" fill="#22c55e"/><rect x="933" y="470" width="168" height="230" rx="18" fill="url(#metal)" stroke="#7dd3fc" stroke-opacity=".55"/><rect x="951" y="494" width="132" height="14" rx="7" fill="#38bdf8" opacity=".55"/><circle cx="1073" cy="672" r="8" fill="#22c55e"/><rect x="1183" y="420" width="185" height="261" rx="18" fill="url(#metal)" stroke="#7dd3fc" stroke-opacity=".55"/><rect x="1201" y="444" width="149" height="14" rx="7" fill="#38bdf8" opacity=".55"/><circle cx="1340" cy="653" r="8" fill="#22c55e"/><rect x="1433" y="370" width="202" height="292" rx="18" fill="url(#metal)" stroke="#7dd3fc" stroke-opacity=".55"/><rect x="1451" y="394" width="166" height="14" rx="7" fill="#38bdf8" opacity=".55"/><circle cx="1607" cy="634" r="8" fill="#22c55e"/><rect x="1683" y="470" width="124" height="323" rx="18" fill="url(#metal)" stroke="#7dd3fc" stroke-opacity=".55"/><rect x="1701" y="494" width="88" height="14" rx="7" fill="#38bdf8" opacity=".55"/><circle cx="1779" cy="765" r="8" fill="#22c55e"/></g><rect x="760" y="250" width="400" height="360" rx="34" fill="#0f172a" stroke="#7dd3fc" stroke-width="8"/><g opacity=".9"><rect x="810" y="310" width="300" height="28" rx="14" fill="#38bdf8"/><rect x="810" y="380" width="300" height="28" rx="14" fill="#60a5fa"/><rect x="810" y="450" width="300" height="28" rx="14" fill="#38bdf8"/></g><text x="96" y="140" font-family="Arial, Helvetica, sans-serif" font-size="58" font-weight="700" fill="#0f172a">Data Center</text><text x="100" y="202" font-family="Arial, Helvetica, sans-serif" font-size="28" fill="#2563eb">Ultra HD enterprise technology artwork · SEN Systems</text><rect x="96" y="888" width="520" height="6" rx="3" fill="#38bdf8"/><rect x="96" y="918" width="360" height="6" rx="3" fill="#93c5fd"/></svg>