<svg xmlns="http://www.w3.org/2000/svg" viewBox="0 0 1920 1080" role="img" aria-labelledby="title desc"><title id="title">Government Data Center</title><desc id="desc">Premium corporate blue technology illustration of Government Data Center</desc><defs><linearGradient id="bg" x1="0" x2="1" y1="0" y2="1"><stop stop-color="#ffffff"/><stop offset=".55" stop-color="#eef7ff"/><stop offset="1" stop-color="#dbeafe"/></linearGradient><linearGradient id="metal" x1="0" x2="1"><stop stop-color="#0f172a"/><stop offset=".5" stop-color="#1e3a8a"/><stop offset="1" stop-color="#075985"/></linearGradient><filter id="glow"><feGaussianBlur stdDeviation="10" result="b"/><feMerge><feMergeNode in="b"/><feMergeNode in="SourceGraphic"/></feMerge></filter></defs><rect width="1920" height="1080" fill="url(#bg)"/><path d="M0 790C360 640 600 900 960 735s650-250 960-80v425H0Z" fill="#bfdbfe" opacity=".45"/><g opacity=".32"><circle cx="230" cy="149" r="5" fill="#0ea5e9"/><path d="M230 149 C 310 229, 400 89, 490 189" fill="none" stroke="#60a5fa" stroke-opacity=".28" stroke-width="3"/><circle cx="400" cy="246" r="5" fill="#0ea5e9"/><path d="M400 246 C 480 326, 570 186, 660 286" fill="none" stroke="#60a5fa" stroke-opacity=".28" stroke-width="3"/><circle cx="570" cy="343" r="5" fill="#0ea5e9"/><path d="M570 343 C 650 423, 740 283, 830 383" fill="none" stroke="#60a5fa" stroke-opacity=".28" stroke-width="3"/><circle cx="740" cy="200" r="5" fill="#0ea5e9"/><path d="M740 200 C 820 280, 910 140, 1000 240" fill="none" stroke="#60a5fa" stroke-opacity=".28" stroke-width="3"/><circle cx="910" cy="297" r="5" fill="#0ea5e9"/><path d="M910 297 C 990 377, 1080 237, 1170 337" fill="none" stroke="#60a5fa" stroke-opacity=".28" stroke-width="3"/><circle cx="1080" cy="154" r="5" fill="#0ea5e9"/><path d="M1080 154 C 1160 234, 1250 94, 1340 194" fill="none" stroke="#60a5fa" stroke-opacity=".28" stroke-width="3"/><circle cx="1250" cy="251" r="5" fill="#0ea5e9"/><path d="M1250 251 C 1330 331, 1420 191, 1510 291" fill="none" stroke="#60a5fa" stroke-opacity=".28" stroke-width="3"/><circle cx="1420" cy="348" r="5" fill="#0ea5e9"/><path d="M1420 348 C 1500 428, 1590 288, 1680 388" fill="none" stroke="#60a5fa" stroke-opacity=".28" stroke-width="3"/><circle cx="1590" cy="205" r="5" fill="#0ea5e9"/><path d="M1590 205 C 1670 285, 1760 145, 1850 245" fill="none" stroke="#60a5fa" stroke-opacity=".28" stroke-width="3"/><circle cx="260" cy="302" r="5" fill="#0ea5e9"/><path d="M260 302 C 340 382, 430 242, 520 342" fill="none" stroke="#60a5fa" stroke-opacity=".28" stroke-width="3"/></g><g filter="url(#glow)"><rect x="196" y="470" width="144" height="319" rx="18" fill="url(#metal)" stroke="#7dd3fc" stroke-opacity=".55"/><rect x="214" y="494" width="108" height="14" rx="7" fill="#38bdf8" opacity=".55"/><circle cx="312" cy="761" r="8" fill="#22c55e"/><rect x="446" y="420" width="161" height="220" rx="18" fill="url(#metal)" stroke="#7dd3fc" stroke-opacity=".55"/><rect x="464" y="444" width="125" height="14" rx="7" fill="#38bdf8" opacity=".55"/><circle cx="579" cy="612" r="8" fill="#22c55e"/><rect x="696" y="370" width="178" height="251" rx="18" fill="url(#metal)" stroke="#7dd3fc" stroke-opacity=".55"/><rect x="714" y="394" width="142" height="14" rx="7" fill="#38bdf8" opacity=".55"/><circle cx="846" cy="593" r="8" fill="#22c55e"/><rect x="946" y="470" width="195" height="282" rx="18" fill="url(#metal)" stroke="#7dd3fc" stroke-opacity=".55"/><rect x="964" y="494" width="159" height="14" rx="7" fill="#38bdf8" opacity=".55"/><circle cx="1113" cy="724" r="8" fill="#22c55e"/><rect x="1196" y="420" width="212" height="313" rx="18" fill="url(#metal)" stroke="#7dd3fc" stroke-opacity=".55"/><rect x="1214" y="444" width="176" height="14" rx="7" fill="#38bdf8" opacity=".55"/><circle cx="1380" cy="705" r="8" fill="#22c55e"/><rect x="1446" y="370" width="134" height="214" rx="18" fill="url(#metal)" stroke="#7dd3fc" stroke-opacity=".55"/><rect x="1464" y="394" width="98" height="14" rx="7" fill="#38bdf8" opacity=".55"/><circle cx="1552" cy="556" r="8" fill="#22c55e"/><rect x="1696" y="470" width="151" height="245" rx="18" fill="url(#metal)" stroke="#7dd3fc" stroke-opacity=".55"/><rect x="1714" y="494" width="115" height="14" rx="7" fill="#38bdf8" opacity=".55"/><circle cx="1819" cy="687" r="8" fill="#22c55e"/></g><rect x="760" y="250" width="400" height="360" rx="34" fill="#0f172a" stroke="#7dd3fc" stroke-width="8"/><g opacity=".9"><rect x="810" y="310" width="300" height="28" rx="14" fill="#38bdf8"/><rect x="810" y="380" width="300" height="28" rx="14" fill="#60a5fa"/><rect x="810" y="450" width="300" height="28" rx="14" fill="#38bdf8"/></g><text x="96" y="140" font-family="Arial, Helvetica, sans-serif" font-size="58" font-weight="700" fill="#0f172a">Government Data Center</text><text x="100" y="202" font-family="Arial, Helvetica, sans-serif" font-size="28" fill="#2563eb">Ultra HD enterprise technology artwork · SEN Systems</text><rect x="96" y="888" width="520" height="6" rx="3" fill="#38bdf8"/><rect x="96" y="918" width="360" height="6" rx="3" fill="#93c5fd"/></svg>