<svg xmlns="http://www.w3.org/2000/svg" viewBox="0 0 1920 1080" role="img" aria-labelledby="title desc"><title id="title">Hospital</title><desc id="desc">Premium corporate blue technology illustration of Hospital</desc><defs><linearGradient id="bg" x1="0" x2="1" y1="0" y2="1"><stop stop-color="#ffffff"/><stop offset=".55" stop-color="#eef7ff"/><stop offset="1" stop-color="#dbeafe"/></linearGradient><linearGradient id="metal" x1="0" x2="1"><stop stop-color="#0f172a"/><stop offset=".5" stop-color="#1e3a8a"/><stop offset="1" stop-color="#075985"/></linearGradient><filter id="glow"><feGaussianBlur stdDeviation="10" result="b"/><feMerge><feMergeNode in="b"/><feMergeNode in="SourceGraphic"/></feMerge></filter></defs><rect width="1920" height="1080" fill="url(#bg)"/><path d="M0 790C360 640 600 900 960 735s650-250 960-80v425H0Z" fill="#bfdbfe" opacity=".45"/><g opacity=".32"><circle cx="230" cy="168" r="5" fill="#0ea5e9"/><path d="M230 168 C 310 248, 400 108, 490 208" fill="none" stroke="#60a5fa" stroke-opacity=".28" stroke-width="3"/><circle cx="400" cy="265" r="5" fill="#0ea5e9"/><path d="M400 265 C 480 345, 570 205, 660 305" fill="none" stroke="#60a5fa" stroke-opacity=".28" stroke-width="3"/><circle cx="570" cy="362" r="5" fill="#0ea5e9"/><path d="M570 362 C 650 442, 740 302, 830 402" fill="none" stroke="#60a5fa" stroke-opacity=".28" stroke-width="3"/><circle cx="740" cy="219" r="5" fill="#0ea5e9"/><path d="M740 219 C 820 299, 910 159, 1000 259" fill="none" stroke="#60a5fa" stroke-opacity=".28" stroke-width="3"/><circle cx="910" cy="316" r="5" fill="#0ea5e9"/><path d="M910 316 C 990 396, 1080 256, 1170 356" fill="none" stroke="#60a5fa" stroke-opacity=".28" stroke-width="3"/><circle cx="1080" cy="173" r="5" fill="#0ea5e9"/><path d="M1080 173 C 1160 253, 1250 113, 1340 213" fill="none" stroke="#60a5fa" stroke-opacity=".28" stroke-width="3"/><circle cx="1250" cy="270" r="5" fill="#0ea5e9"/><path d="M1250 270 C 1330 350, 1420 210, 1510 310" fill="none" stroke="#60a5fa" stroke-opacity=".28" stroke-width="3"/><circle cx="1420" cy="367" r="5" fill="#0ea5e9"/><path d="M1420 367 C 1500 447, 1590 307, 1680 407" fill="none" stroke="#60a5fa" stroke-opacity=".28" stroke-width="3"/><circle cx="1590" cy="224" r="5" fill="#0ea5e9"/><path d="M1590 224 C 1670 304, 1760 164, 1850 264" fill="none" stroke="#60a5fa" stroke-opacity=".28" stroke-width="3"/><circle cx="260" cy="321" r="5" fill="#0ea5e9"/><path d="M260 321 C 340 401, 430 261, 520 361" fill="none" stroke="#60a5fa" stroke-opacity=".28" stroke-width="3"/></g><g filter="url(#glow)"><rect x="182" y="470" width="208" height="228" rx="18" fill="url(#metal)" stroke="#7dd3fc" stroke-opacity=".55"/><rect x="200" y="494" width="172" height="14" rx="7" fill="#38bdf8" opacity=".55"/><circle cx="362" cy="670" r="8" fill="#22c55e"/><rect x="432" y="420" width="130" height="259" rx="18" fill="url(#metal)" stroke="#7dd3fc" stroke-opacity=".55"/><rect x="450" y="444" width="94" height="14" rx="7" fill="#38bdf8" opacity=".55"/><circle cx="534" cy="651" r="8" fill="#22c55e"/><rect x="682" y="370" width="147" height="290" rx="18" fill="url(#metal)" stroke="#7dd3fc" stroke-opacity=".55"/><rect x="700" y="394" width="111" height="14" rx="7" fill="#38bdf8" opacity=".55"/><circle cx="801" cy="632" r="8" fill="#22c55e"/><rect x="932" y="470" width="164" height="321" rx="18" fill="url(#metal)" stroke="#7dd3fc" stroke-opacity=".55"/><rect x="950" y="494" width="128" height="14" rx="7" fill="#38bdf8" opacity=".55"/><circle cx="1068" cy="763" r="8" fill="#22c55e"/><rect x="1182" y="420" width="181" height="222" rx="18" fill="url(#metal)" stroke="#7dd3fc" stroke-opacity=".55"/><rect x="1200" y="444" width="145" height="14" rx="7" fill="#38bdf8" opacity=".55"/><circle cx="1335" cy="614" r="8" fill="#22c55e"/><rect x="1432" y="370" width="198" height="253" rx="18" fill="url(#metal)" stroke="#7dd3fc" stroke-opacity=".55"/><rect x="1450" y="394" width="162" height="14" rx="7" fill="#38bdf8" opacity=".55"/><circle cx="1602" cy="595" r="8" fill="#22c55e"/><rect x="1682" y="470" width="120" height="284" rx="18" fill="url(#metal)" stroke="#7dd3fc" stroke-opacity=".55"/><rect x="1700" y="494" width="84" height="14" rx="7" fill="#38bdf8" opacity=".55"/><circle cx="1774" cy="726" r="8" fill="#22c55e"/></g><path d="M850 370h220a70 70 0 0 1 0 140H850a70 70 0 0 1 0-140Z" fill="#fff" stroke="#93c5fd" stroke-width="8"/><circle cx="850" cy="440" r="115" fill="none" stroke="#38bdf8" stroke-width="28" opacity=".75"/><text x="96" y="140" font-family="Arial, Helvetica, sans-serif" font-size="58" font-weight="700" fill="#0f172a">Hospital</text><text x="100" y="202" font-family="Arial, Helvetica, sans-serif" font-size="28" fill="#2563eb">Ultra HD enterprise technology artwork · SEN Systems</text><rect x="96" y="888" width="520" height="6" rx="3" fill="#38bdf8"/><rect x="96" y="918" width="360" height="6" rx="3" fill="#93c5fd"/></svg>