<svg xmlns="http://www.w3.org/2000/svg" viewBox="0 0 1920 1080" role="img" aria-labelledby="title desc"><title id="title">Smart Factory</title><desc id="desc">Premium corporate blue technology illustration of Smart Factory</desc><defs><linearGradient id="bg" x1="0" x2="1" y1="0" y2="1"><stop stop-color="#ffffff"/><stop offset=".55" stop-color="#eef7ff"/><stop offset="1" stop-color="#dbeafe"/></linearGradient><linearGradient id="metal" x1="0" x2="1"><stop stop-color="#0f172a"/><stop offset=".5" stop-color="#1e3a8a"/><stop offset="1" stop-color="#075985"/></linearGradient><filter id="glow"><feGaussianBlur stdDeviation="10" result="b"/><feMerge><feMergeNode in="b"/><feMergeNode in="SourceGraphic"/></feMerge></filter></defs><rect width="1920" height="1080" fill="url(#bg)"/><path d="M0 790C360 640 600 900 960 735s650-250 960-80v425H0Z" fill="#bfdbfe" opacity=".45"/><g opacity=".32"><circle cx="230" cy="192" r="5" fill="#0ea5e9"/><path d="M230 192 C 310 272, 400 132, 490 232" fill="none" stroke="#60a5fa" stroke-opacity=".28" stroke-width="3"/><circle cx="400" cy="289" r="5" fill="#0ea5e9"/><path d="M400 289 C 480 369, 570 229, 660 329" fill="none" stroke="#60a5fa" stroke-opacity=".28" stroke-width="3"/><circle cx="570" cy="146" r="5" fill="#0ea5e9"/><path d="M570 146 C 650 226, 740 86, 830 186" fill="none" stroke="#60a5fa" stroke-opacity=".28" stroke-width="3"/><circle cx="740" cy="243" r="5" fill="#0ea5e9"/><path d="M740 243 C 820 323, 910 183, 1000 283" fill="none" stroke="#60a5fa" stroke-opacity=".28" stroke-width="3"/><circle cx="910" cy="340" r="5" fill="#0ea5e9"/><path d="M910 340 C 990 420, 1080 280, 1170 380" fill="none" stroke="#60a5fa" stroke-opacity=".28" stroke-width="3"/><circle cx="1080" cy="197" r="5" fill="#0ea5e9"/><path d="M1080 197 C 1160 277, 1250 137, 1340 237" fill="none" stroke="#60a5fa" stroke-opacity=".28" stroke-width="3"/><circle cx="1250" cy="294" r="5" fill="#0ea5e9"/><path d="M1250 294 C 1330 374, 1420 234, 1510 334" fill="none" stroke="#60a5fa" stroke-opacity=".28" stroke-width="3"/><circle cx="1420" cy="151" r="5" fill="#0ea5e9"/><path d="M1420 151 C 1500 231, 1590 91, 1680 191" fill="none" stroke="#60a5fa" stroke-opacity=".28" stroke-width="3"/><circle cx="1590" cy="248" r="5" fill="#0ea5e9"/><path d="M1590 248 C 1670 328, 1760 188, 1850 288" fill="none" stroke="#60a5fa" stroke-opacity=".28" stroke-width="3"/><circle cx="260" cy="345" r="5" fill="#0ea5e9"/><path d="M260 345 C 340 425, 430 285, 520 385" fill="none" stroke="#60a5fa" stroke-opacity=".28" stroke-width="3"/></g><g filter="url(#glow)"><rect x="180" y="470" width="142" height="212" rx="18" fill="url(#metal)" stroke="#7dd3fc" stroke-opacity=".55"/><rect x="198" y="494" width="106" height="14" rx="7" fill="#38bdf8" opacity=".55"/><circle cx="294" cy="654" r="8" fill="#22c55e"/><rect x="430" y="420" width="159" height="243" rx="18" fill="url(#metal)" stroke="#7dd3fc" stroke-opacity=".55"/><rect x="448" y="444" width="123" height="14" rx="7" fill="#38bdf8" opacity=".55"/><circle cx="561" cy="635" r="8" fill="#22c55e"/><rect x="680" y="370" width="176" height="274" rx="18" fill="url(#metal)" stroke="#7dd3fc" stroke-opacity=".55"/><rect x="698" y="394" width="140" height="14" rx="7" fill="#38bdf8" opacity=".55"/><circle cx="828" cy="616" r="8" fill="#22c55e"/><rect x="930" y="470" width="193" height="305" rx="18" fill="url(#metal)" stroke="#7dd3fc" stroke-opacity=".55"/><rect x="948" y="494" width="157" height="14" rx="7" fill="#38bdf8" opacity=".55"/><circle cx="1095" cy="747" r="8" fill="#22c55e"/><rect x="1180" y="420" width="210" height="336" rx="18" fill="url(#metal)" stroke="#7dd3fc" stroke-opacity=".55"/><rect x="1198" y="444" width="174" height="14" rx="7" fill="#38bdf8" opacity=".55"/><circle cx="1362" cy="728" r="8" fill="#22c55e"/><rect x="1430" y="370" width="132" height="237" rx="18" fill="url(#metal)" stroke="#7dd3fc" stroke-opacity=".55"/><rect x="1448" y="394" width="96" height="14" rx="7" fill="#38bdf8" opacity=".55"/><circle cx="1534" cy="579" r="8" fill="#22c55e"/><rect x="1680" y="470" width="149" height="268" rx="18" fill="url(#metal)" stroke="#7dd3fc" stroke-opacity=".55"/><rect x="1698" y="494" width="113" height="14" rx="7" fill="#38bdf8" opacity=".55"/><circle cx="1801" cy="710" r="8" fill="#22c55e"/></g><path d="M850 370h220a70 70 0 0 1 0 140H850a70 70 0 0 1 0-140Z" fill="#fff" stroke="#93c5fd" stroke-width="8"/><circle cx="850" cy="440" r="115" fill="none" stroke="#38bdf8" stroke-width="28" opacity=".75"/><text x="96" y="140" font-family="Arial, Helvetica, sans-serif" font-size="58" font-weight="700" fill="#0f172a">Smart Factory</text><text x="100" y="202" font-family="Arial, Helvetica, sans-serif" font-size="28" fill="#2563eb">Ultra HD enterprise technology artwork · SEN Systems</text><rect x="96" y="888" width="520" height="6" rx="3" fill="#38bdf8"/><rect x="96" y="918" width="360" height="6" rx="3" fill="#93c5fd"/></svg>