<svg xmlns="http://www.w3.org/2000/svg" viewBox="0 0 1920 1080" role="img" aria-labelledby="title desc"><title id="title">Telecommunication</title><desc id="desc">Premium corporate blue technology illustration of Telecommunication</desc><defs><linearGradient id="bg" x1="0" x2="1" y1="0" y2="1"><stop stop-color="#ffffff"/><stop offset=".55" stop-color="#eef7ff"/><stop offset="1" stop-color="#dbeafe"/></linearGradient><linearGradient id="metal" x1="0" x2="1"><stop stop-color="#0f172a"/><stop offset=".5" stop-color="#1e3a8a"/><stop offset="1" stop-color="#075985"/></linearGradient><filter id="glow"><feGaussianBlur stdDeviation="10" result="b"/><feMerge><feMergeNode in="b"/><feMergeNode in="SourceGraphic"/></feMerge></filter></defs><rect width="1920" height="1080" fill="url(#bg)"/><path d="M0 790C360 640 600 900 960 735s650-250 960-80v425H0Z" fill="#bfdbfe" opacity=".45"/><g opacity=".32"><circle cx="230" cy="192" r="5" fill="#0ea5e9"/><path d="M230 192 C 310 272, 400 132, 490 232" fill="none" stroke="#60a5fa" stroke-opacity=".28" stroke-width="3"/><circle cx="400" cy="289" r="5" fill="#0ea5e9"/><path d="M400 289 C 480 369, 570 229, 660 329" fill="none" stroke="#60a5fa" stroke-opacity=".28" stroke-width="3"/><circle cx="570" cy="146" r="5" fill="#0ea5e9"/><path d="M570 146 C 650 226, 740 86, 830 186" fill="none" stroke="#60a5fa" stroke-opacity=".28" stroke-width="3"/><circle cx="740" cy="243" r="5" fill="#0ea5e9"/><path d="M740 243 C 820 323, 910 183, 1000 283" fill="none" stroke="#60a5fa" stroke-opacity=".28" stroke-width="3"/><circle cx="910" cy="340" r="5" fill="#0ea5e9"/><path d="M910 340 C 990 420, 1080 280, 1170 380" fill="none" stroke="#60a5fa" stroke-opacity=".28" stroke-width="3"/><circle cx="1080" cy="197" r="5" fill="#0ea5e9"/><path d="M1080 197 C 1160 277, 1250 137, 1340 237" fill="none" stroke="#60a5fa" stroke-opacity=".28" stroke-width="3"/><circle cx="1250" cy="294" r="5" fill="#0ea5e9"/><path d="M1250 294 C 1330 374, 1420 234, 1510 334" fill="none" stroke="#60a5fa" stroke-opacity=".28" stroke-width="3"/><circle cx="1420" cy="151" r="5" fill="#0ea5e9"/><path d="M1420 151 C 1500 231, 1590 91, 1680 191" fill="none" stroke="#60a5fa" stroke-opacity=".28" stroke-width="3"/><circle cx="1590" cy="248" r="5" fill="#0ea5e9"/><path d="M1590 248 C 1670 328, 1760 188, 1850 288" fill="none" stroke="#60a5fa" stroke-opacity=".28" stroke-width="3"/><circle cx="260" cy="345" r="5" fill="#0ea5e9"/><path d="M260 345 C 340 425, 430 285, 520 385" fill="none" stroke="#60a5fa" stroke-opacity=".28" stroke-width="3"/></g><g filter="url(#glow)"><rect x="196" y="470" width="182" height="272" rx="18" fill="url(#metal)" stroke="#7dd3fc" stroke-opacity=".55"/><rect x="214" y="494" width="146" height="14" rx="7" fill="#38bdf8" opacity=".55"/><circle cx="350" cy="714" r="8" fill="#22c55e"/><rect x="446" y="420" width="199" height="303" rx="18" fill="url(#metal)" stroke="#7dd3fc" stroke-opacity=".55"/><rect x="464" y="444" width="163" height="14" rx="7" fill="#38bdf8" opacity=".55"/><circle cx="617" cy="695" r="8" fill="#22c55e"/><rect x="696" y="370" width="121" height="334" rx="18" fill="url(#metal)" stroke="#7dd3fc" stroke-opacity=".55"/><rect x="714" y="394" width="85" height="14" rx="7" fill="#38bdf8" opacity=".55"/><circle cx="789" cy="676" r="8" fill="#22c55e"/><rect x="946" y="470" width="138" height="235" rx="18" fill="url(#metal)" stroke="#7dd3fc" stroke-opacity=".55"/><rect x="964" y="494" width="102" height="14" rx="7" fill="#38bdf8" opacity=".55"/><circle cx="1056" cy="677" r="8" fill="#22c55e"/><rect x="1196" y="420" width="155" height="266" rx="18" fill="url(#metal)" stroke="#7dd3fc" stroke-opacity=".55"/><rect x="1214" y="444" width="119" height="14" rx="7" fill="#38bdf8" opacity=".55"/><circle cx="1323" cy="658" r="8" fill="#22c55e"/><rect x="1446" y="370" width="172" height="297" rx="18" fill="url(#metal)" stroke="#7dd3fc" stroke-opacity=".55"/><rect x="1464" y="394" width="136" height="14" rx="7" fill="#38bdf8" opacity=".55"/><circle cx="1590" cy="639" r="8" fill="#22c55e"/><rect x="1696" y="470" width="189" height="328" rx="18" fill="url(#metal)" stroke="#7dd3fc" stroke-opacity=".55"/><rect x="1714" y="494" width="153" height="14" rx="7" fill="#38bdf8" opacity=".55"/><circle cx="1857" cy="770" r="8" fill="#22c55e"/></g><ellipse cx="960" cy="420" rx="255" ry="100" fill="none" stroke="#38bdf8" stroke-width="8" opacity=".65"/><ellipse cx="960" cy="420" rx="100" ry="255" fill="none" stroke="#60a5fa" stroke-width="8" opacity=".45"/><circle cx="960" cy="420" r="64" fill="#0f172a" stroke="#7dd3fc" stroke-width="10"/><text x="96" y="140" font-family="Arial, Helvetica, sans-serif" font-size="58" font-weight="700" fill="#0f172a">Telecommunication</text><text x="100" y="202" font-family="Arial, Helvetica, sans-serif" font-size="28" fill="#2563eb">Ultra HD enterprise technology artwork · SEN Systems</text><rect x="96" y="888" width="520" height="6" rx="3" fill="#38bdf8"/><rect x="96" y="918" width="360" height="6" rx="3" fill="#93c5fd"/></svg>