<svg xmlns="http://www.w3.org/2000/svg" viewBox="0 0 1920 1080" role="img" aria-labelledby="title desc"><title id="title">University IT Infrastructure</title><desc id="desc">Premium corporate blue technology illustration of University IT Infrastructure</desc><defs><linearGradient id="bg" x1="0" x2="1" y1="0" y2="1"><stop stop-color="#ffffff"/><stop offset=".55" stop-color="#eef7ff"/><stop offset="1" stop-color="#dbeafe"/></linearGradient><linearGradient id="metal" x1="0" x2="1"><stop stop-color="#0f172a"/><stop offset=".5" stop-color="#1e3a8a"/><stop offset="1" stop-color="#075985"/></linearGradient><filter id="glow"><feGaussianBlur stdDeviation="10" result="b"/><feMerge><feMergeNode in="b"/><feMergeNode in="SourceGraphic"/></feMerge></filter></defs><rect width="1920" height="1080" fill="url(#bg)"/><path d="M0 790C360 640 600 900 960 735s650-250 960-80v425H0Z" fill="#bfdbfe" opacity=".45"/><g opacity=".32"><circle cx="230" cy="233" r="5" fill="#0ea5e9"/><path d="M230 233 C 310 313, 400 173, 490 273" fill="none" stroke="#60a5fa" stroke-opacity=".28" stroke-width="3"/><circle cx="400" cy="330" r="5" fill="#0ea5e9"/><path d="M400 330 C 480 410, 570 270, 660 370" fill="none" stroke="#60a5fa" stroke-opacity=".28" stroke-width="3"/><circle cx="570" cy="187" r="5" fill="#0ea5e9"/><path d="M570 187 C 650 267, 740 127, 830 227" fill="none" stroke="#60a5fa" stroke-opacity=".28" stroke-width="3"/><circle cx="740" cy="284" r="5" fill="#0ea5e9"/><path d="M740 284 C 820 364, 910 224, 1000 324" fill="none" stroke="#60a5fa" stroke-opacity=".28" stroke-width="3"/><circle cx="910" cy="141" r="5" fill="#0ea5e9"/><path d="M910 141 C 990 221, 1080 81, 1170 181" fill="none" stroke="#60a5fa" stroke-opacity=".28" stroke-width="3"/><circle cx="1080" cy="238" r="5" fill="#0ea5e9"/><path d="M1080 238 C 1160 318, 1250 178, 1340 278" fill="none" stroke="#60a5fa" stroke-opacity=".28" stroke-width="3"/><circle cx="1250" cy="335" r="5" fill="#0ea5e9"/><path d="M1250 335 C 1330 415, 1420 275, 1510 375" fill="none" stroke="#60a5fa" stroke-opacity=".28" stroke-width="3"/><circle cx="1420" cy="192" r="5" fill="#0ea5e9"/><path d="M1420 192 C 1500 272, 1590 132, 1680 232" fill="none" stroke="#60a5fa" stroke-opacity=".28" stroke-width="3"/><circle cx="1590" cy="289" r="5" fill="#0ea5e9"/><path d="M1590 289 C 1670 369, 1760 229, 1850 329" fill="none" stroke="#60a5fa" stroke-opacity=".28" stroke-width="3"/><circle cx="260" cy="146" r="5" fill="#0ea5e9"/><path d="M260 146 C 340 226, 430 86, 520 186" fill="none" stroke="#60a5fa" stroke-opacity=".28" stroke-width="3"/></g><g filter="url(#glow)"><rect x="198" y="470" width="183" height="253" rx="18" fill="url(#metal)" stroke="#7dd3fc" stroke-opacity=".55"/><rect x="216" y="494" width="147" height="14" rx="7" fill="#38bdf8" opacity=".55"/><circle cx="353" cy="695" r="8" fill="#22c55e"/><rect x="448" y="420" width="200" height="284" rx="18" fill="url(#metal)" stroke="#7dd3fc" stroke-opacity=".55"/><rect x="466" y="444" width="164" height="14" rx="7" fill="#38bdf8" opacity=".55"/><circle cx="620" cy="676" r="8" fill="#22c55e"/><rect x="698" y="370" width="122" height="315" rx="18" fill="url(#metal)" stroke="#7dd3fc" stroke-opacity=".55"/><rect x="716" y="394" width="86" height="14" rx="7" fill="#38bdf8" opacity=".55"/><circle cx="792" cy="657" r="8" fill="#22c55e"/><rect x="948" y="470" width="139" height="216" rx="18" fill="url(#metal)" stroke="#7dd3fc" stroke-opacity=".55"/><rect x="966" y="494" width="103" height="14" rx="7" fill="#38bdf8" opacity=".55"/><circle cx="1059" cy="658" r="8" fill="#22c55e"/><rect x="1198" y="420" width="156" height="247" rx="18" fill="url(#metal)" stroke="#7dd3fc" stroke-opacity=".55"/><rect x="1216" y="444" width="120" height="14" rx="7" fill="#38bdf8" opacity=".55"/><circle cx="1326" cy="639" r="8" fill="#22c55e"/><rect x="1448" y="370" width="173" height="278" rx="18" fill="url(#metal)" stroke="#7dd3fc" stroke-opacity=".55"/><rect x="1466" y="394" width="137" height="14" rx="7" fill="#38bdf8" opacity=".55"/><circle cx="1593" cy="620" r="8" fill="#22c55e"/><rect x="1698" y="470" width="190" height="309" rx="18" fill="url(#metal)" stroke="#7dd3fc" stroke-opacity=".55"/><rect x="1716" y="494" width="154" height="14" rx="7" fill="#38bdf8" opacity=".55"/><circle cx="1860" cy="751" r="8" fill="#22c55e"/></g><path d="M850 370h220a70 70 0 0 1 0 140H850a70 70 0 0 1 0-140Z" fill="#fff" stroke="#93c5fd" stroke-width="8"/><circle cx="850" cy="440" r="115" fill="none" stroke="#38bdf8" stroke-width="28" opacity=".75"/><text x="96" y="140" font-family="Arial, Helvetica, sans-serif" font-size="58" font-weight="700" fill="#0f172a">University IT Infrastructure</text><text x="100" y="202" font-family="Arial, Helvetica, sans-serif" font-size="28" fill="#2563eb">Ultra HD enterprise technology artwork · SEN Systems</text><rect x="96" y="888" width="520" height="6" rx="3" fill="#38bdf8"/><rect x="96" y="918" width="360" height="6" rx="3" fill="#93c5fd"/></svg>